#N canvas 61 50 980 692 10;
#X obj 101 270 cnv 15 148 103 empty empty empty 20 12 0 14 -204786
-66577 0;
#X obj 208 127 vsl 15 128 10 10000 1 1 empty empty empty 0 -9 0 10
-262144 -1 -1 7192 0;
#X obj 116 127 vsl 15 128 10 10000 1 1 empty empty empty 0 -9 0 10
-262144 -1 -1 1700 0;
#X obj 149 127 vsl 15 128 10 10000 1 1 empty empty empty 0 -9 0 10
-262144 -1 -1 5400 0;
#X obj 179 127 vsl 15 128 0 100 0 1 empty empty empty 0 -9 0 10 -262144
-1 -1 10100 0;
#X text 208 105 r;
#X text 179 105 s;
#X text 149 105 d;
#X text 116 105 a;
#X obj 271 41 inlet;
#X obj 519 43 inlet;
#X obj 618 43 inlet;
#X text 515 17 attack inlet;
#X text 613 17 decay inlet;
#X obj 699 43 inlet;
#X text 702 17 sustain inlet;
#X obj 826 43 inlet;
#X obj 377 597 outlet~;
#X text 376 618 output is the line for the envelope;
#X text 817 17 release inlet;
#X floatatom 193 280 6 0 0 0 - - -, f 6;
#X floatatom 193 302 6 0 0 0 - - -, f 6;
#X floatatom 193 324 5 0 0 0 - - -, f 5;
#X floatatom 193 346 6 0 0 0 - - -, f 6;
#X text 117 280 attack (ms):;
#X text 123 301 decay (ms):;
#X text 117 324 sustain (%):;
#X text 111 346 release (ms):;
#X obj 870 275 outlet;
#X text 869 295 gate bit;
#X text 269 16 bang to start envelope;
#X obj 430 42 inlet;
#X text 417 15 bang to stop;
#X obj 377 534 vline~;
#X obj 377 567 dbtorms~;
#X obj 481 334 delay;
#X obj 25 53 loadbang;
#X msg 490 298 stop;
#X obj 497 416 pack 0 0 0;
#X msg 474 437 \$2 \$3;
#X obj 870 249 f 1;
#X obj 911 248 f 0;
#X obj 348 387 pack 0 0;
#X msg 350 414 100 \$2;
#X obj 633 437 pack 0 0;
#X obj 633 400 f 1;
#X obj 481 364 f 1;
#X obj 344 349 f 1;
#X obj 430 131 t b b;
#X msg 633 465 0 \$2;
#X text 517 344 handles the decay part of the envelope line;
#X text 692 453 release part of envelope;
#X text 76 418 inlet 1 - bang to start;
#X text 75 431 inlet 2 - bang to stop;
#X text 76 446 inlet 3 - attack time in ms;
#X text 76 465 inlet 4 - delay time in ms;
#X text 76 499 inlet 5 - sustain amt;
#X text 75 480 inlet 6 - release time in ms;
#X text 76 533 outlet 1 - line signal between 0 and 1;
#X text 76 514 outlet 2 - gate bit;
#X floatatom 379 294 5 0 0 0 - - -, f 5;
#X text 375 272 final a;
#X text 311 433 handles the attack line of env;
#X floatatom 554 329 5 0 0 0 - - -, f 5;
#X text 553 305 final d;
#X floatatom 525 388 5 0 0 0 - - -, f 5;
#X text 525 369 final s;
#X floatatom 676 392 5 0 0 0 - - -, f 5;
#X text 724 389 final r;
#X text 831 644 by matt brady;
#X obj 572 565 outlet;
#X text 581 586 a;
#X obj 622 565 outlet;
#X obj 670 565 outlet;
#X obj 719 565 outlet;
#X text 631 586 d;
#X text 679 586 s;
#X text 728 586 r;
#X connect 1 0 23 0;
#X connect 2 0 20 0;
#X connect 3 0 21 0;
#X connect 4 0 22 0;
#X connect 9 0 35 0;
#X connect 9 0 40 0;
#X connect 9 0 47 0;
#X connect 10 0 2 0;
#X connect 11 0 3 0;
#X connect 14 0 4 0;
#X connect 16 0 1 0;
#X connect 20 0 60 0;
#X connect 21 0 63 0;
#X connect 22 0 65 0;
#X connect 23 0 67 0;
#X connect 31 0 41 0;
#X connect 31 0 48 0;
#X connect 33 0 34 0;
#X connect 34 0 17 0;
#X connect 35 0 46 0;
#X connect 36 0 2 0;
#X connect 36 0 3 0;
#X connect 36 0 4 0;
#X connect 36 0 1 0;
#X connect 37 0 35 0;
#X connect 38 0 39 0;
#X connect 39 0 33 0;
#X connect 40 0 28 0;
#X connect 41 0 28 0;
#X connect 42 0 43 0;
#X connect 43 0 33 0;
#X connect 44 0 49 0;
#X connect 45 0 44 0;
#X connect 46 0 38 0;
#X connect 47 0 42 0;
#X connect 48 0 45 0;
#X connect 48 1 37 0;
#X connect 49 0 33 0;
#X connect 60 0 42 1;
#X connect 60 0 35 1;
#X connect 60 0 70 0;
#X connect 63 0 38 2;
#X connect 63 0 72 0;
#X connect 65 0 38 1;
#X connect 65 0 73 0;
#X connect 67 0 44 1;
#X connect 67 0 74 0;
#X coords 0 -1 1 1 150 275 2 100 100;
