#N canvas -8 -8 1536 781 10;
#X obj 11 157 cnv 15 698 156 empty empty empty 20 12 0 14 -128992 -66577
0;
#X obj 1226 565 outlet~;
#X obj 21 5 inlet;
#X obj 21 25 bng 25 250 50 0 empty empty empty 17 7 0 10 -159808 -1
-1;
#X obj 5 417 c64voice;
#X obj 24 163 tgl 20 0 empty empty empty 17 7 0 10 -228856 -1 -1 0
1;
#X obj 149 96 bng 15 250 50 0 empty empty empty 17 7 0 10 -262144 -1
-1;
#X obj 405 417 c64voice;
#X obj 109 394 mtof;
#X obj 509 395 mtof;
#X obj 627 338 adsr;
#X obj 549 621 *~;
#X obj 420 637 +~;
#X obj 230 337 adsr;
#X obj 204 620 *~;
#X msg 153 113 0 100 0;
#X msg 580 85 27 94 1;
#X obj 93 7 loadbang;
#X obj 93 29 bng 15 250 50 0 empty empty empty 17 7 0 10 -262144 -1
-1;
#X obj 557 13 f 4800;
#X text 603 11 how long is 1 time thru sequencer;
#X floatatom 660 14 5 0 0 0 - - -, f 5;
#X obj 516 6 bng 15 250 50 0 empty empty empty 17 7 0 10 -262144 -1
-1;
#X obj 381 28 delay 38400;
#X obj 160 35 *;
#X obj 175 14 f 1;
#X obj 207 55 select 1;
#X obj 169 316 loadbang;
#X msg 8 386 saw;
#X obj 297 315 f 40;
#X obj 330 316 f 25;
#X obj 395 315 f 500;
#X msg 405 394 square;
#X obj 441 362 * 1.001;
#X obj 532 329 loadbang;
#X obj 675 313 f 98;
#X obj 707 313 f 143;
#X obj 744 313 f 55;
#X obj 775 313 f 500;
#X msg 367 86 30 98 1;
#X msg 423 86 30 97 1;
#X msg 212 93 32 98 1;
#X msg 666 87 30 99 1;
#X msg 283 90 32 99 1;
#X obj 567 40 * 4;
#X obj 181 379 f 85;
#X obj 575 380 f 80;
#X obj 468 643 lop~ 200;
#X obj 619 625 osc~ 0.1;
#X obj 535 673 *~;
#X obj 623 646 *~ 0.1;
#X obj 21 189 step16;
#X msg 495 83 27 95 1;
#X msg 724 87 30 99 1;
#X obj 232 316 bng 15 250 50 0 empty empty empty 17 7 0 10 -262144
-1 -1;
#X obj 492 680 *~;
#X obj 364 315 f 85;
#X obj 941 313 /~ 0.1;
#X obj 1016 365 *~;
#X obj 943 339 +~ 0.7;
#X obj 934 283 osc~ 2;
#X obj 911 245 osc~ 0.05;
#X obj 883 273 *~ 5;
#X obj 1175 458 rev2~, f 14;
#X obj 1203 363 bng 15 250 50 0 empty empty empty 17 7 0 10 -262144
-1 -1;
#X obj 1242 407 f 440;
#X obj 1287 405 f 10;
#X obj 1161 406 f 110;
#X obj 1203 406 f 75;
#N canvas 315 50 943 715 bassSequencer 0;
#X obj 436 691 outlet~;
#X obj 15 5 inlet;
#X obj 15 25 bng 25 250 50 0 empty empty empty 17 7 0 10 -159808 -1
-1;
#X obj 25 427 c64voice;
#X obj 15 109 tgl 20 0 empty empty empty 17 7 0 10 -84881 -1 -1 0 1
;
#X obj 15 149 bng 15 250 50 0 empty empty empty 17 7 0 10 -262144 -1
-1;
#X obj 425 427 c64voice;
#X obj 129 404 mtof;
#X obj 529 405 mtof;
#X obj 647 348 adsr;
#X obj 569 631 *~;
#X obj 440 647 +~;
#X obj 250 347 adsr;
#X obj 224 630 *~;
#X msg 54 161 0 100 0;
#X msg 481 133 27 94 1;
#X obj 87 7 loadbang;
#X obj 87 29 bng 15 250 50 0 empty empty empty 17 7 0 10 -262144 -1
-1;
#X obj 551 13 f 4800;
#X text 597 11 how long is 1 time thru sequencer;
#X floatatom 561 62 5 0 0 0 - - -, f 5;
#X obj 510 6 bng 15 250 50 0 empty empty empty 17 7 0 10 -262144 -1
-1;
#X obj 375 28 delay 38400;
#X obj 61 83 *;
#X obj 76 62 f 1;
#X obj 108 103 select 1;
#X obj 189 326 loadbang;
#X msg 28 396 saw;
#X obj 317 325 f 40;
#X obj 350 326 f 25;
#X obj 415 325 f 500;
#X msg 425 404 square;
#X obj 461 372 * 1.001;
#X obj 552 339 loadbang;
#X obj 695 323 f 98;
#X obj 727 323 f 143;
#X obj 764 323 f 55;
#X obj 795 323 f 500;
#X msg 268 134 30 98 1;
#X msg 324 134 30 97 1;
#X msg 113 141 32 98 1;
#X msg 567 135 30 99 1;
#X msg 184 138 32 99 1;
#X obj 561 40 * 4;
#X obj 201 389 f 85;
#X obj 595 390 f 80;
#X obj 488 653 lop~ 200;
#X obj 639 635 osc~ 0.1;
#X obj 529 673 *~;
#X obj 643 656 *~ 0.1;
#X obj 610 680 +~ 0.8;
#X obj 15 129 metro 1000;
#X msg 396 131 27 95 1;
#X msg 625 135 30 99 1;
#X obj 252 326 bng 15 250 50 0 empty empty empty 17 7 0 10 -262144
-1 -1;
#X obj 486 680 *~;
#X obj 384 325 f 85;
#X obj 15 189 step16;
#X connect 1 0 2 0;
#X connect 2 0 4 0;
#X connect 2 0 17 0;
#X connect 3 0 13 0;
#X connect 4 0 23 0;
#X connect 4 0 51 0;
#X connect 5 0 57 0;
#X connect 6 0 10 0;
#X connect 7 0 3 1;
#X connect 8 0 6 1;
#X connect 9 0 10 1;
#X connect 10 0 11 1;
#X connect 11 0 46 0;
#X connect 12 0 13 1;
#X connect 13 0 11 0;
#X connect 14 0 57 2;
#X connect 14 0 57 4;
#X connect 14 0 57 6;
#X connect 14 0 57 8;
#X connect 14 0 57 10;
#X connect 14 0 57 12;
#X connect 14 0 57 14;
#X connect 14 0 57 16;
#X connect 15 0 57 11;
#X connect 16 0 17 0;
#X connect 17 0 38 0;
#X connect 17 0 39 0;
#X connect 17 0 40 0;
#X connect 17 0 14 0;
#X connect 17 0 22 0;
#X connect 17 0 41 0;
#X connect 17 0 15 0;
#X connect 17 0 52 0;
#X connect 17 0 42 0;
#X connect 17 0 53 0;
#X connect 18 0 43 0;
#X connect 21 0 18 0;
#X connect 22 0 24 0;
#X connect 23 0 25 0;
#X connect 24 0 23 1;
#X connect 25 0 17 0;
#X connect 26 0 27 0;
#X connect 26 0 28 0;
#X connect 26 0 29 0;
#X connect 26 0 30 0;
#X connect 26 0 44 0;
#X connect 26 0 56 0;
#X connect 27 0 3 0;
#X connect 28 0 12 2;
#X connect 29 0 12 3;
#X connect 30 0 12 5;
#X connect 31 0 6 0;
#X connect 32 0 8 0;
#X connect 33 0 31 0;
#X connect 33 0 34 0;
#X connect 33 0 35 0;
#X connect 33 0 36 0;
#X connect 33 0 37 0;
#X connect 33 0 45 0;
#X connect 34 0 9 2;
#X connect 35 0 9 3;
#X connect 36 0 9 4;
#X connect 37 0 9 5;
#X connect 38 0 57 5;
#X connect 39 0 57 7;
#X connect 40 0 57 1;
#X connect 41 0 57 13;
#X connect 42 0 57 3;
#X connect 43 0 20 0;
#X connect 44 0 3 2;
#X connect 45 0 6 2;
#X connect 46 0 48 0;
#X connect 47 0 49 0;
#X connect 48 0 55 0;
#X connect 49 0 50 0;
#X connect 50 0 48 1;
#X connect 51 0 5 0;
#X connect 52 0 57 9;
#X connect 53 0 57 15;
#X connect 54 0 12 0;
#X connect 55 0 0 0;
#X connect 56 0 12 4;
#X connect 57 0 7 0;
#X connect 57 0 54 0;
#X connect 57 0 32 0;
#X connect 57 1 55 1;
#X connect 57 2 9 0;
#X restore 1177 280 pd bassSequencer;
#X obj 1171 240 bng 15 250 50 0 empty empty empty 17 7 0 10 -262144
-1 -1;
#X obj 1202 341 loadbang;
#X obj 414 668 *~;
#X obj 465 34 f 0;
#X obj 466 9 inlet;
#X obj 616 680 +~ 0.9;
#X obj 1355 637 outlet;
#X obj 994 529 env~;
#X floatatom 994 551 5 0 0 0 - - -, f 5;
#X obj 149 76 metro 1000;
#X connect 2 0 3 0;
#X connect 3 0 5 0;
#X connect 3 0 18 0;
#X connect 4 0 14 0;
#X connect 5 0 24 0;
#X connect 5 0 72 1;
#X connect 5 0 79 0;
#X connect 6 0 51 0;
#X connect 7 0 11 0;
#X connect 8 0 4 1;
#X connect 9 0 7 1;
#X connect 10 0 11 1;
#X connect 11 0 12 1;
#X connect 12 0 72 0;
#X connect 13 0 14 1;
#X connect 14 0 12 0;
#X connect 15 0 51 2;
#X connect 15 0 51 4;
#X connect 15 0 51 6;
#X connect 15 0 51 8;
#X connect 15 0 51 10;
#X connect 15 0 51 12;
#X connect 15 0 51 14;
#X connect 15 0 51 16;
#X connect 16 0 51 11;
#X connect 17 0 18 0;
#X connect 18 0 39 0;
#X connect 18 0 40 0;
#X connect 18 0 41 0;
#X connect 18 0 15 0;
#X connect 18 0 23 0;
#X connect 18 0 42 0;
#X connect 18 0 16 0;
#X connect 18 0 52 0;
#X connect 18 0 43 0;
#X connect 18 0 53 0;
#X connect 19 0 44 0;
#X connect 22 0 19 0;
#X connect 23 0 25 0;
#X connect 24 0 26 0;
#X connect 25 0 24 1;
#X connect 26 0 18 0;
#X connect 27 0 28 0;
#X connect 27 0 29 0;
#X connect 27 0 30 0;
#X connect 27 0 31 0;
#X connect 27 0 45 0;
#X connect 27 0 56 0;
#X connect 28 0 4 0;
#X connect 29 0 13 2;
#X connect 30 0 13 3;
#X connect 31 0 13 5;
#X connect 32 0 7 0;
#X connect 33 0 9 0;
#X connect 34 0 32 0;
#X connect 34 0 35 0;
#X connect 34 0 36 0;
#X connect 34 0 37 0;
#X connect 34 0 38 0;
#X connect 34 0 46 0;
#X connect 35 0 10 2;
#X connect 36 0 10 3;
#X connect 37 0 10 4;
#X connect 38 0 10 5;
#X connect 39 0 51 5;
#X connect 40 0 51 7;
#X connect 41 0 51 1;
#X connect 42 0 51 13;
#X connect 43 0 51 3;
#X connect 44 0 21 0;
#X connect 45 0 4 2;
#X connect 46 0 7 2;
#X connect 47 0 49 0;
#X connect 48 0 50 0;
#X connect 49 0 55 0;
#X connect 50 0 75 0;
#X connect 51 0 8 0;
#X connect 51 0 54 0;
#X connect 51 0 33 0;
#X connect 51 1 55 1;
#X connect 51 2 10 0;
#X connect 51 3 76 0;
#X connect 52 0 51 9;
#X connect 53 0 51 15;
#X connect 54 0 13 0;
#X connect 55 0 58 1;
#X connect 56 0 13 4;
#X connect 57 0 59 0;
#X connect 58 0 63 0;
#X connect 58 0 1 0;
#X connect 59 0 58 0;
#X connect 60 0 57 0;
#X connect 61 0 62 0;
#X connect 62 0 60 0;
#X connect 63 0 1 0;
#X connect 64 0 65 0;
#X connect 64 0 66 0;
#X connect 64 0 67 0;
#X connect 64 0 68 0;
#X connect 65 0 63 3;
#X connect 66 0 63 4;
#X connect 67 0 63 1;
#X connect 68 0 63 2;
#X connect 70 0 69 0;
#X connect 71 0 64 0;
#X connect 72 0 47 0;
#X connect 73 0 5 0;
#X connect 74 0 73 0;
#X connect 75 0 49 1;
#X connect 77 0 78 0;
#X connect 79 0 6 0;
#X coords 0 -1 1 1 700 160 2 10 155;
