#N canvas 90 65 841 583 10;
#X obj 51 254 cnv 15 115 90 empty empty empty 5 5 0 10 -261682 -66577
0;
#X obj 470 35 inlet;
#X text 462 11 frequency;
#X symbolatom 89 272 8 0 0 0 - - -, f 8;
#X obj 243 84 symbol;
#X text 55 271 wave:;
#X floatatom 85 291 5 0 0 0 - - -, f 5;
#X text 51 290 freq:;
#X floatatom 268 142 5 0 0 0 - - -, f 5;
#X obj 217 128 print;
#X obj 368 118 select saw square triangle noise, f 42;
#X text 82 190 saw:;
#X text 52 170 triangle:;
#X text 149 190 noise:;
#X text 146 170 square:;
#X obj 110 170 bng 15 250 50 0 empty empty empty 17 7 0 10 -262144
-1 -1;
#X obj 110 191 bng 15 250 50 0 empty empty empty 17 7 0 10 -262144
-1 -1;
#X obj 189 171 bng 15 250 50 0 empty empty empty 17 7 0 10 -262144
-1 -1;
#X obj 189 192 bng 15 250 50 0 empty empty empty 17 7 0 10 -262144
-1 -1;
#X msg 130 45 saw;
#X msg 182 45 square;
#X msg 82 86 triangle;
#X msg 160 83 noise;
#X obj 458 161 f 1;
#X obj 432 161 f 0;
#X obj 400 161 f 1;
#X obj 370 161 f 0;
#X obj 518 161 f 1;
#X obj 490 161 f 0;
#X obj 585 161 f 1;
#X obj 555 161 f 0;
#X text 62 150 choose your wave:;
#X obj 385 381 outlet~;
#X obj 322 210 phasor~;
#X obj 368 283 *~;
#X obj 401 214 square~;
#X obj 451 235 *~;
#X obj 481 213 triangle~;
#X obj 538 237 *~;
#X obj 573 211 noise~;
#X obj 617 237 *~;
#X obj 287 34 inlet;
#X msg 638 167 invalid!;
#X obj 631 146 bng 15 250 50 0 empty empty empty 17 7 0 10 -262144
-1 -1;
#X obj 323 235 -~ 0.5;
#X obj 323 257 *~ 2;
#X text 50 252 current settings:;
#X obj 383 347 *~;
#X obj 45 119 loadbang;
#X text 53 314 volume:;
#X text 53 217 set volume:;
#X obj 126 219 hsl 128 15 0 100 0 0 empty empty empty -2 -8 0 10 -262144
-1 -1 11430 0;
#X floatatom 99 314 5 0 0 0 - - -, f 5;
#X text 197 2 waveshape message \, send a message with corresponding
shape;
#X obj 561 35 inlet;
#X text 557 11 volume (in db);
#X obj 272 313 dbtorms;
#X obj 11 179 f 90;
#X floatatom 280 356 5 0 0 0 - - -, f 5;
#X connect 1 0 8 0;
#X connect 4 0 3 0;
#X connect 4 0 10 0;
#X connect 8 0 6 0;
#X connect 8 0 33 0;
#X connect 8 0 35 0;
#X connect 8 0 37 0;
#X connect 10 0 25 0;
#X connect 10 0 24 0;
#X connect 10 0 28 0;
#X connect 10 0 30 0;
#X connect 10 1 23 0;
#X connect 10 1 26 0;
#X connect 10 1 28 0;
#X connect 10 1 30 0;
#X connect 10 2 27 0;
#X connect 10 2 30 0;
#X connect 10 2 24 0;
#X connect 10 2 26 0;
#X connect 10 3 28 0;
#X connect 10 3 24 0;
#X connect 10 3 26 0;
#X connect 10 3 29 0;
#X connect 10 4 43 0;
#X connect 15 0 21 0;
#X connect 16 0 19 0;
#X connect 17 0 20 0;
#X connect 18 0 22 0;
#X connect 19 0 4 0;
#X connect 20 0 4 0;
#X connect 21 0 4 0;
#X connect 22 0 4 0;
#X connect 23 0 36 1;
#X connect 24 0 36 1;
#X connect 25 0 34 1;
#X connect 26 0 34 1;
#X connect 27 0 38 1;
#X connect 28 0 38 1;
#X connect 29 0 40 1;
#X connect 30 0 40 1;
#X connect 33 0 44 0;
#X connect 34 0 47 0;
#X connect 35 0 36 0;
#X connect 36 0 47 0;
#X connect 37 0 38 0;
#X connect 38 0 47 0;
#X connect 39 0 40 0;
#X connect 40 0 47 0;
#X connect 41 0 4 0;
#X connect 42 0 4 0;
#X connect 43 0 42 0;
#X connect 44 0 45 0;
#X connect 45 0 34 0;
#X connect 47 0 32 0;
#X connect 48 0 15 0;
#X connect 48 0 57 0;
#X connect 51 0 52 0;
#X connect 52 0 56 0;
#X connect 54 0 52 0;
#X connect 56 0 47 1;
#X connect 56 0 58 0;
#X connect 57 0 51 0;
#X coords 0 -1 1 1 215 195 2 50 150;
