#N canvas 0 50 1536 781 10;
#X obj 341 58 adc~;
#X obj 20 151 tgl 15 0 empty empty empty 17 7 0 10 -262144 -1 -1 0
1;
#X obj 11 33 bng 25 250 50 0 empty empty empty 17 7 0 10 -204786 -1
-1;
#X obj 22 80 s startSample;
#X obj 11 100 delay 3000;
#N canvas 282 60 535 681 countdown 0;
#X obj 162 233 outlet;
#X obj 180 38 r startSample;
#X obj 163 89 f 3;
#X obj 198 91 delay 1000;
#X obj 191 114 f 2;
#X obj 266 114 f 1;
#X obj 270 88 delay 2000;
#X obj 342 90 delay 3000;
#X obj 345 117 f 0;
#X floatatom 73 182 5 0 0 0 - - -, f 5;
#X msg 73 201 color \$1;
#X msg 97 140 color 3;
#X msg 201 153 color 5;
#X msg 269 190 color 6;
#X msg 359 159 color 13;
#X obj 436 96 delay 4000;
#X msg 449 164 color 2;
#X obj 450 52 + 3000;
#X obj 420 20 r stime1;
#X connect 1 0 2 0;
#X connect 1 0 3 0;
#X connect 1 0 6 0;
#X connect 1 0 7 0;
#X connect 1 0 15 0;
#X connect 2 0 0 0;
#X connect 2 0 11 0;
#X connect 3 0 4 0;
#X connect 4 0 0 0;
#X connect 4 0 12 0;
#X connect 5 0 0 0;
#X connect 5 0 13 0;
#X connect 6 0 5 0;
#X connect 7 0 8 0;
#X connect 8 0 0 0;
#X connect 8 0 14 0;
#X connect 9 0 10 0;
#X connect 10 0 0 0;
#X connect 11 0 0 0;
#X connect 12 0 0 0;
#X connect 13 0 0 0;
#X connect 14 0 0 0;
#X connect 15 0 16 0;
#X connect 16 0 0 0;
#X connect 17 0 15 1;
#X connect 18 0 17 0;
#X restore 928 1 pd countdown;
#X msg 949 60 \; pd dsp 1;
#X obj 951 38 loadbang;
#X obj 20 171 metro 5;
#X obj 350 90 *~ 0.5;
#X obj 108 196 tabwrite~ vocalsample1;
#X obj 212 135 tgl 15 0 empty empty empty 17 7 0 10 -262144 -1 -1 0
1;
#X obj 206 27 bng 25 250 50 0 empty empty empty 17 7 0 10 -261682 -1
-1;
#X obj 204 91 delay 3000;
#X obj 215 160 metro 5;
#X obj 255 193 tabwrite~ vocalsample2;
#N canvas 0 50 707 681 countdown 0;
#X obj 146 267 outlet;
#X obj 147 123 f 3;
#X obj 175 124 delay 1000;
#X obj 175 148 f 2;
#X obj 250 148 f 1;
#X obj 251 125 delay 2000;
#X obj 326 124 delay 3000;
#X obj 329 151 f 0;
#X floatatom 57 216 5 0 0 0 - - -, f 5;
#X msg 57 235 color \$1;
#X msg 81 174 color 3;
#X msg 185 187 color 5;
#X msg 253 224 color 6;
#X msg 343 193 color 13;
#X obj 420 130 delay 4000;
#X msg 433 198 color 2;
#X obj 147 98 r startSample1;
#X obj 470 84 + 3000;
#X obj 440 52 r stime2;
#X connect 1 0 0 0;
#X connect 1 0 10 0;
#X connect 2 0 3 0;
#X connect 3 0 0 0;
#X connect 3 0 11 0;
#X connect 4 0 0 0;
#X connect 4 0 12 0;
#X connect 5 0 4 0;
#X connect 6 0 7 0;
#X connect 7 0 0 0;
#X connect 7 0 13 0;
#X connect 8 0 9 0;
#X connect 9 0 0 0;
#X connect 10 0 0 0;
#X connect 11 0 0 0;
#X connect 12 0 0 0;
#X connect 13 0 0 0;
#X connect 14 0 15 0;
#X connect 15 0 0 0;
#X connect 16 0 1 0;
#X connect 16 0 2 0;
#X connect 16 0 5 0;
#X connect 16 0 6 0;
#X connect 16 0 14 0;
#X connect 17 0 14 1;
#X connect 18 0 17 0;
#X restore 915 191 pd countdown;
#X obj 215 71 s startSample1;
#X obj 35 128 delay 1000;
#X obj 782 562 f 1;
#X obj 809 585 f 0;
#X obj 809 606 *~;
#X obj 808 631 *~ 0.5;
#X obj 809 563 delay 2500;
#X obj 782 539 r startSample;
#X obj 920 607 s referencePitch;
#X obj 951 449 loadbang;
#X obj 951 473 f 220;
#X obj 807 658 outlet~;
#X obj 896 530 r referencePitch;
#X obj 896 559 osc~;
#X obj 11 10 inlet;
#X obj 1026 540 cnv 15 378 53 empty empty empty 20 12 0 14 -204800
-66577 0;
#X obj 223 112 delay 1000;
#X obj 204 4 inlet;
#X obj 245 306 outlet~;
#N canvas 0 50 450 300 countdown 0;
#X obj 108 225 outlet;
#X obj 109 81 f 3;
#X obj 137 82 delay 1000;
#X obj 137 106 f 2;
#X obj 212 106 f 1;
#X obj 213 83 delay 2000;
#X obj 288 82 delay 3000;
#X obj 291 109 f 0;
#X floatatom 19 174 5 0 0 0 - - -, f 5;
#X msg 19 193 color \$1;
#X msg 43 132 color 3;
#X msg 147 145 color 5;
#X msg 215 182 color 6;
#X msg 305 151 color 13;
#X obj 382 88 delay 4000;
#X msg 395 156 color 2;
#X obj 109 56 r startSample3;
#X obj 383 48 + 3000;
#X obj 353 16 r stime3;
#X connect 1 0 0 0;
#X connect 1 0 10 0;
#X connect 2 0 3 0;
#X connect 3 0 0 0;
#X connect 3 0 11 0;
#X connect 4 0 0 0;
#X connect 4 0 12 0;
#X connect 5 0 4 0;
#X connect 6 0 7 0;
#X connect 7 0 0 0;
#X connect 7 0 13 0;
#X connect 8 0 9 0;
#X connect 9 0 0 0;
#X connect 10 0 0 0;
#X connect 11 0 0 0;
#X connect 12 0 0 0;
#X connect 13 0 0 0;
#X connect 14 0 15 0;
#X connect 15 0 0 0;
#X connect 16 0 1 0;
#X connect 16 0 2 0;
#X connect 16 0 5 0;
#X connect 16 0 6 0;
#X connect 16 0 14 0;
#X connect 17 0 14 1;
#X connect 18 0 17 0;
#X restore 934 343 pd countdown;
#X obj 431 116 tgl 15 0 empty empty empty 17 7 0 10 -262144 -1 -1 0
1;
#X obj 439 26 bng 25 250 50 0 empty empty empty 17 7 0 10 -203904 -1
-1;
#X obj 439 76 delay 3000;
#X obj 451 136 metro 5;
#X obj 458 97 delay 1000;
#X obj 439 3 inlet;
#X obj 450 56 s startSample3;
#X obj 779 496 r startSample3;
#X obj 501 294 outlet~;
#X obj 501 238 inlet;
#X obj 732 519 r startSample1;
#X obj 282 447 outlet~;
#X obj 281 394 inlet;
#X obj 340 574 outlet~;
#X obj 340 525 inlet;
#X obj 102 482 outlet~;
#X obj 103 422 inlet;
#X obj 158 597 outlet~;
#X obj 158 527 inlet;
#X obj 538 427 outlet~;
#X obj 537 378 inlet;
#X obj 575 536 outlet~;
#X obj 574 485 inlet;
#X obj 918 449 bng 15 250 50 0 empty empty empty 17 7 0 10 -262144
-1 -1;
#X obj 1026 17 cnv 15 128 20 empty empty empty 20 12 0 14 -204786 -66577
0;
#X obj 1153 17 cnv 15 130 20 empty empty empty 20 12 0 14 -261682 -66577
0;
#X obj 1284 17 cnv 15 120 20 empty empty empty 20 12 0 14 -203904 -66577
0;
#X text 1026 16 b;
#X text 1049 16 1.1;
#X text 1088 16 1.2;
#X text 1121 16 1.3;
#X text 1157 16 b;
#X text 1294 16 b;
#X text 1186 16 2.1;
#X text 1220 16 2.2;
#X text 1254 16 2.3;
#X text 1318 16 3.1;
#X text 1350 16 3.2;
#X text 1383 16 3.3;
#X obj 1026 593 cnv 15 120 20 empty empty empty 20 12 0 14 -204786
-66577 0;
#X obj 1141 593 cnv 15 130 20 empty empty empty 20 12 0 14 -261682
-66577 0;
#X obj 1256 593 cnv 15 120 20 empty empty empty 20 12 0 14 -203904
-66577 0;
#X text 1029 592 1.1;
#X text 1066 592 1.2;
#X text 1104 592 1.3;
#X text 1146 592 2.1;
#X text 1184 592 2.2;
#X text 1224 592 2.3;
#X text 1265 592 3.1;
#X text 1303 592 3.2;
#X text 1343 592 3.3;
#X text 1379 592 ref;
#X obj 1418 71 loadbang;
#X obj 1431 142 f 1000;
#X obj 1498 97 bng 15 250 50 0 empty empty empty 17 7 0 10 -262144
-1 -1;
#X obj 1026 38 cnv 15 378 170 empty empty empty 20 12 0 14 -204786
-66577 0;
#N canvas 0 50 450 250 (subpatch) 0;
#X array vocalsample1 44100 float 0;
#X coords 0 1 44099 -1 200 140 1 0 0;
#X restore 1039 53 graph;
#X obj 1251 53 nbx 1 30 -1e+037 1e+037 0 0 empty empty empty 0 -8 0
30 -66577 -1 -1 0 256;
#X floatatom 1252 177 5 0 0 0 - - -, f 5;
#X text 1287 175 sample time (ms);
#X obj 1026 203 cnv 15 378 175 empty empty empty 20 12 0 14 -261682
-66577 0;
#N canvas 0 50 450 250 (subpatch) 0;
#X array vocalsample2 44100 float 0;
#X coords 0 1 44099 -1 200 140 1 0 0;
#X restore 1040 228 graph;
#X obj 1256 214 nbx 1 30 -1e+037 1e+037 0 0 empty empty empty 0 -8
0 30 -66577 -1 -1 0 256;
#X obj 1259 332 hsl 128 15 19 10000 1 0 empty empty empty -2 -8 0 10
-261682 -1 -1 8033 0;
#X floatatom 1256 354 5 0 0 0 - - -, f 5;
#X text 1292 353 sample time (ms);
#X obj 1026 379 cnv 15 378 160 empty empty empty 20 12 0 14 -203904
-66577 0;
#X obj 1257 394 nbx 1 30 -1e+037 1e+037 0 0 empty empty empty 0 -8
0 30 -66577 -1 -1 0 256;
#N canvas 0 50 450 250 (subpatch) 0;
#X array vocalsample3 44100 float 0;
#X coords 0 1 44099 -1 200 140 1 0 0;
#X restore 1040 392 graph;
#X obj 1259 505 hsl 128 15 10 10000 1 0 empty empty empty -2 -8 0 10
-203904 -1 -1 8467 0;
#X floatatom 1256 521 5 0 0 0 - - -, f 5;
#X text 1292 520 sample time (ms);
#X floatatom 1048 570 5 0 0 0 - - -, f 5;
#X text 1087 567 reference pitch;
#X obj 1051 548 hsl 128 15 110 660 0 0 empty empty empty -2 -8 0 10
-204800 -1 -1 2540 1;
#X obj 85 102 r stime1;
#X obj 1436 194 s stime1;
#X obj 571 162 tabwrite~ vocalsample3;
#N canvas 327 181 380 178 resize1 0;
#X obj 73 19 r stime1;
#X msg 28 93 \; vocalsample1 resize \$2;
#X obj 28 67 pack 0 0;
#X obj 28 42 f 1;
#X obj 28 18 inlet;
#X obj 73 42 * 44.1;
#X floatatom 31 144 5 0 0 0 - - -, f 5;
#X connect 0 0 5 0;
#X connect 1 0 6 0;
#X connect 2 0 1 0;
#X connect 3 0 2 0;
#X connect 4 0 3 0;
#X connect 5 0 2 1;
#X restore 46 58 pd resize1;
#X obj 1431 360 s stime2;
#N canvas 0 50 450 300 resize2 0;
#X obj 28 67 pack 0 0;
#X obj 28 42 f 1;
#X obj 28 18 inlet;
#X obj 73 42 * 44.1;
#X obj 73 19 r stime2;
#X msg 28 93 \; vocalsample2 resize \$2;
#X connect 0 0 5 0;
#X connect 1 0 0 0;
#X connect 2 0 1 0;
#X connect 3 0 0 1;
#X connect 4 0 3 0;
#X restore 253 48 pd resize2;
#X obj 285 94 r stime2;
#N canvas 0 50 312 210 resize3 0;
#X obj 28 67 pack 0 0;
#X obj 28 42 f 1;
#X obj 28 18 inlet;
#X obj 73 42 * 44.1;
#X msg 28 93 \; vocalsample3 resize \$2;
#X obj 73 19 r stime3;
#X connect 0 0 4 0;
#X connect 1 0 0 0;
#X connect 2 0 1 0;
#X connect 3 0 0 1;
#X connect 5 0 3 0;
#X restore 555 49 pd resize3;
#X obj 544 69 r stime3;
#X obj 1425 507 s stime3;
#X text 1313 50 save:;
#X text 1313 69 load:;
#X obj 1347 50 bng 15 250 50 0 empty empty empty 17 7 0 10 -4034 -1
-1;
#X obj 1347 68 bng 15 250 50 0 empty empty empty 17 7 0 10 -4034 -1
-1;
#N canvas 0 50 450 300 write1 0;
#X obj 55 49 inlet;
#X obj 55 71 savepanel;
#X obj 55 129 soundfiler;
#X msg 55 102 write -wave \$1 vocalsample1;
#X connect 0 0 1 0;
#X connect 1 0 3 0;
#X connect 3 0 2 0;
#X restore 1421 24 pd write1;
#N canvas 0 50 450 300 load1 0;
#X obj 35 37 inlet;
#X obj 35 116 soundfiler;
#X obj 35 62 openpanel;
#X msg 35 89 read -resize \$1 vocalsample1;
#X obj 35 168 s extTime1;
#X obj 35 142 / 44.1;
#X connect 0 0 2 0;
#X connect 1 0 5 0;
#X connect 2 0 3 0;
#X connect 3 0 1 0;
#X connect 5 0 4 0;
#X restore 1425 49 pd load1;
#X text 1313 211 save:;
#X text 1313 230 load:;
#X obj 1347 211 bng 15 250 50 0 empty empty empty 17 7 0 10 -260097
-1 -1;
#X obj 1347 229 bng 15 250 50 0 empty empty empty 17 7 0 10 -260097
-1 -1;
#N canvas 0 50 450 300 write2 0;
#X obj 55 49 inlet;
#X obj 55 71 savepanel;
#X obj 55 129 soundfiler;
#X msg 55 102 write -wave \$1 vocalsample2;
#X connect 0 0 1 0;
#X connect 1 0 3 0;
#X connect 3 0 2 0;
#X restore 1429 247 pd write2;
#N canvas 0 50 450 300 load3 0;
#X obj 35 37 inlet;
#X obj 35 116 soundfiler;
#X obj 35 62 openpanel;
#X msg 35 89 read -resize \$1 vocalsample3;
#X obj 35 142 / 44.1;
#X obj 35 167 s extTIme3;
#X connect 0 0 2 0;
#X connect 1 0 4 0;
#X connect 2 0 3 0;
#X connect 3 0 1 0;
#X connect 4 0 5 0;
#X restore 1423 445 pd load3;
#N canvas 0 50 450 300 load2 0;
#X obj 35 37 inlet;
#X obj 35 116 soundfiler;
#X obj 35 62 openpanel;
#X msg 35 89 read -resize \$1 vocalsample2;
#X obj 35 143 / 44.1;
#X obj 35 171 s extTime2;
#X connect 0 0 2 0;
#X connect 1 0 4 0;
#X connect 2 0 3 0;
#X connect 3 0 1 0;
#X connect 4 0 5 0;
#X restore 1429 271 pd load2;
#X text 1313 395 save:;
#X text 1313 414 load:;
#X obj 1347 395 bng 15 250 50 0 empty empty empty 17 7 0 10 -159808
-1 -1;
#X obj 1347 413 bng 15 250 50 0 empty empty empty 17 7 0 10 -159808
-1 -1;
#N canvas 0 50 450 300 write3 0;
#X obj 55 49 inlet;
#X obj 55 71 savepanel;
#X obj 55 129 soundfiler;
#X msg 55 102 write -wave \$1 vocalsample3;
#X connect 0 0 1 0;
#X connect 1 0 3 0;
#X connect 3 0 2 0;
#X restore 1425 421 pd write3;
#X obj 1254 88 hsl 128 15 0 44100 0 0 empty start1 empty -2 -8 0 10
-204786 -1 -1 0 1;
#X msg 674 62 \; start1 range 0 \$1;
#X obj 676 13 r stime1;
#X obj 676 36 * 44.1;
#X floatatom 1251 103 7 0 0 0 - - -, f 7;
#X obj 1256 125 hsl 128 15 0 44100 0 0 empty end1 empty -2 -8 0 10
-204786 -1 -1 12700 0;
#X obj 846 12 r stime1;
#X obj 846 35 * 44.1;
#X floatatom 1253 140 7 0 0 0 - - -, f 7;
#X msg 802 93 \; end1 range \$1 \$2;
#X obj 801 68 pack 0 0;
#X obj 805 12 r s1;
#X obj 962 95 s s1;
#X obj 804 42 f;
#X obj 880 68 bng 15 250 50 0 empty empty empty 17 7 0 10 -262144 -1
-1;
#X obj 964 155 s e1;
#X obj 1437 165 r extTime1;
#X obj 1424 300 r extTime2;
#X obj 1441 472 r extTime3;
#X obj 731 220 f 1;
#X obj 743 242 /;
#X floatatom 772 266 5 0 0 0 - - -, f 5;
#X obj 731 197 t b f;
#X obj 719 266 s freq1;
#X obj 762 385 f 1;
#X obj 774 407 /;
#X floatatom 803 431 5 0 0 0 - - -, f 5;
#X obj 762 362 t b f;
#X obj 750 431 s freq2;
#X obj 857 345 f 1;
#X obj 869 367 /;
#X floatatom 898 391 5 0 0 0 - - -, f 5;
#X obj 857 322 t b f;
#X obj 845 391 s freq3;
#N canvas 78 69 450 423 voice11 0;
#X obj 67 230 *~ 44100;
#X obj 67 173 phasor~ 1;
#X obj 62 333 outlet~;
#X obj 67 81 inlet;
#X text 60 61 freq 1 assuming at refPitch;
#X obj 67 123 /;
#X obj 82 102 r referencePitch;
#X obj 62 309 tabread4~ vocalsample1;
#X obj 67 148 *;
#X obj 92 258 r s1;
#X obj 66 286 +~;
#X obj 149 206 -;
#X obj 217 136 r s1;
#X obj 181 136 r e1;
#X obj 122 137 r freq1;
#X obj 37 127 bng 15 250 50 0 empty empty empty 17 7 0 10 -262144 -1
-1;
#X floatatom 129 286 5 0 0 0 - - -, f 5;
#X obj 146 181 f;
#X obj 221 196 bng 15 250 50 0 empty empty empty 17 7 0 10 -262144
-1 -1;
#X floatatom 192 247 8 0 0 0 - - -, f 8;
#X floatatom 250 181 5 0 0 0 - - -, f 5;
#X floatatom 20 182 5 0 0 0 - - -, f 5;
#X connect 0 0 10 0;
#X connect 1 0 0 0;
#X connect 3 0 5 0;
#X connect 3 0 15 0;
#X connect 5 0 8 0;
#X connect 6 0 5 1;
#X connect 7 0 2 0;
#X connect 8 0 1 0;
#X connect 9 0 10 1;
#X connect 9 0 16 0;
#X connect 10 0 7 0;
#X connect 11 0 0 1;
#X connect 11 0 19 0;
#X connect 12 0 11 1;
#X connect 12 0 18 0;
#X connect 13 0 17 0;
#X connect 13 0 20 0;
#X connect 14 0 8 1;
#X connect 14 0 21 0;
#X connect 17 0 11 0;
#X connect 18 0 17 0;
#X restore 46 316 pd voice11;
#X obj 46 292 inlet;
#X obj 47 342 outlet~;
#X obj 1439 119 f 44100;
#X obj 1446 91 f 0;
#X obj 730 151 -;
#X obj 766 119 r s1;
#X obj 730 118 r e1;
#X obj 699 128 f;
#X obj 770 141 bng 15 250 50 0 empty empty empty 17 7 0 10 -262144
-1 -1;
#X obj 731 174 / 44100;
#X text 1299 102 start (sample #);
#X text 1298 140 end (sample #);
#X obj 1260 252 hsl 128 15 0 44100 0 0 empty start1 empty -2 -8 0 10
-261682 -1 -1 0 1;
#X text 1304 265 start (sample #);
#X floatatom 1257 267 7 0 0 0 - - -, f 7;
#X obj 1259 292 hsl 128 15 0 44100 0 0 empty end1 empty -2 -8 0 10
-261682 -1 -1 12700 0;
#X floatatom 1256 307 7 0 0 0 - - -, f 7;
#X text 1302 304 end (sample #);
#N canvas 497 90 672 492 voice12 0;
#X obj 67 230 *~ 44100;
#X obj 67 173 phasor~ 1;
#X obj 62 333 outlet~;
#X obj 67 81 inlet;
#X text 60 61 freq 1 assuming at refPitch;
#X obj 67 123 /;
#X obj 82 102 r referencePitch;
#X obj 62 309 tabread4~ vocalsample1;
#X obj 67 148 *;
#X obj 92 258 r s1;
#X obj 66 286 +~;
#X obj 149 206 -;
#X obj 217 136 r s1;
#X obj 181 136 r e1;
#X obj 122 137 r freq1;
#X obj 37 127 bng 15 250 50 0 empty empty empty 17 7 0 10 -262144 -1
-1;
#X floatatom 129 286 5 0 0 0 - - -, f 5;
#X obj 146 181 f;
#X obj 221 196 bng 15 250 50 0 empty empty empty 17 7 0 10 -262144
-1 -1;
#X floatatom 192 247 8 0 0 0 - - -, f 8;
#X floatatom 250 181 5 0 0 0 - - -, f 5;
#X floatatom 20 182 5 0 0 0 - - -, f 5;
#X connect 0 0 10 0;
#X connect 1 0 0 0;
#X connect 3 0 5 0;
#X connect 3 0 15 0;
#X connect 5 0 8 0;
#X connect 6 0 5 1;
#X connect 7 0 2 0;
#X connect 8 0 1 0;
#X connect 9 0 10 1;
#X connect 9 0 16 0;
#X connect 10 0 7 0;
#X connect 11 0 0 1;
#X connect 11 0 19 0;
#X connect 12 0 11 1;
#X connect 12 0 18 0;
#X connect 13 0 17 0;
#X connect 13 0 20 0;
#X connect 14 0 8 1;
#X connect 14 0 21 0;
#X connect 17 0 11 0;
#X connect 18 0 17 0;
#X restore 103 454 pd voice12;
#N canvas 0 50 428 418 voice13 0;
#X obj 67 230 *~ 44100;
#X obj 67 173 phasor~ 1;
#X obj 62 333 outlet~;
#X obj 67 81 inlet;
#X text 60 61 freq 1 assuming at refPitch;
#X obj 67 123 /;
#X obj 82 102 r referencePitch;
#X obj 62 309 tabread4~ vocalsample1;
#X obj 67 148 *;
#X obj 92 258 r s1;
#X obj 66 286 +~;
#X obj 149 206 -;
#X obj 217 136 r s1;
#X obj 181 136 r e1;
#X obj 122 137 r freq1;
#X obj 37 127 bng 15 250 50 0 empty empty empty 17 7 0 10 -262144 -1
-1;
#X floatatom 129 286 5 0 0 0 - - -, f 5;
#X obj 146 181 f;
#X obj 221 196 bng 15 250 50 0 empty empty empty 17 7 0 10 -262144
-1 -1;
#X floatatom 192 247 8 0 0 0 - - -, f 8;
#X floatatom 250 181 5 0 0 0 - - -, f 5;
#X floatatom 20 182 5 0 0 0 - - -, f 5;
#X connect 0 0 10 0;
#X connect 1 0 0 0;
#X connect 3 0 5 0;
#X connect 3 0 15 0;
#X connect 5 0 8 0;
#X connect 6 0 5 1;
#X connect 7 0 2 0;
#X connect 8 0 1 0;
#X connect 9 0 10 1;
#X connect 9 0 16 0;
#X connect 10 0 7 0;
#X connect 11 0 0 1;
#X connect 11 0 19 0;
#X connect 12 0 11 1;
#X connect 12 0 18 0;
#X connect 13 0 17 0;
#X connect 13 0 20 0;
#X connect 14 0 8 1;
#X connect 14 0 21 0;
#X connect 17 0 11 0;
#X connect 18 0 17 0;
#X restore 158 563 pd voice13;
#X text 1203 550 ONLY CHANGE SAMPLE TIME RIGHT BEFORE RECORDING A SAMPLE
;
#X obj 977 265 s s2;
#X obj 975 293 s e2;
#X obj 759 319 -;
#X obj 729 296 f;
#X obj 799 309 bng 15 250 50 0 empty empty empty 17 7 0 10 -262144
-1 -1;
#X obj 760 342 / 44100;
#X obj 759 286 r e2;
#X obj 795 287 r s2;
#N canvas 0 50 584 467 voice21 0;
#X obj 67 230 *~ 44100;
#X obj 67 173 phasor~ 1;
#X obj 62 333 outlet~;
#X obj 67 81 inlet;
#X text 60 61 freq 1 assuming at refPitch;
#X obj 67 123 /;
#X obj 82 102 r referencePitch;
#X obj 67 148 *;
#X obj 66 286 +~;
#X obj 149 206 -;
#X obj 37 127 bng 15 250 50 0 empty empty empty 17 7 0 10 -262144 -1
-1;
#X floatatom 129 286 5 0 0 0 - - -, f 5;
#X obj 146 181 f;
#X obj 221 196 bng 15 250 50 0 empty empty empty 17 7 0 10 -262144
-1 -1;
#X floatatom 192 247 8 0 0 0 - - -, f 8;
#X floatatom 250 181 5 0 0 0 - - -, f 5;
#X floatatom 20 182 5 0 0 0 - - -, f 5;
#X obj 181 136 r e2;
#X obj 217 136 r s2;
#X obj 100 249 r s2;
#X obj 62 309 tabread4~ vocalsample2;
#X obj 122 137 r freq2;
#X connect 0 0 8 0;
#X connect 1 0 0 0;
#X connect 3 0 5 0;
#X connect 3 0 10 0;
#X connect 5 0 7 0;
#X connect 6 0 5 1;
#X connect 7 0 1 0;
#X connect 8 0 20 0;
#X connect 9 0 0 1;
#X connect 9 0 14 0;
#X connect 12 0 9 0;
#X connect 13 0 12 0;
#X connect 17 0 12 0;
#X connect 17 0 15 0;
#X connect 18 0 9 1;
#X connect 18 0 13 0;
#X connect 19 0 11 0;
#X connect 19 0 8 1;
#X connect 20 0 2 0;
#X connect 21 0 7 1;
#X connect 21 0 16 0;
#X restore 245 275 pd voice21;
#X obj 245 248 inlet;
#N canvas 0 50 526 406 voice 0;
#X obj 67 230 *~ 44100;
#X obj 67 173 phasor~ 1;
#X obj 62 333 outlet~;
#X obj 67 81 inlet;
#X text 60 61 freq 1 assuming at refPitch;
#X obj 67 123 /;
#X obj 82 102 r referencePitch;
#X obj 62 309 tabread4~ vocalsample1;
#X obj 67 148 *;
#X obj 66 286 +~;
#X obj 149 206 -;
#X obj 37 127 bng 15 250 50 0 empty empty empty 17 7 0 10 -262144 -1
-1;
#X floatatom 129 286 5 0 0 0 - - -, f 5;
#X obj 146 181 f;
#X obj 221 196 bng 15 250 50 0 empty empty empty 17 7 0 10 -262144
-1 -1;
#X floatatom 192 247 8 0 0 0 - - -, f 8;
#X floatatom 250 181 5 0 0 0 - - -, f 5;
#X floatatom 20 182 5 0 0 0 - - -, f 5;
#X obj 181 136 r e2;
#X obj 217 136 r s2;
#X obj 122 137 r freq2;
#X obj 92 258 r s2;
#X connect 0 0 9 0;
#X connect 1 0 0 0;
#X connect 3 0 5 0;
#X connect 3 0 11 0;
#X connect 5 0 8 0;
#X connect 6 0 5 1;
#X connect 7 0 2 0;
#X connect 8 0 1 0;
#X connect 9 0 7 0;
#X connect 10 0 0 1;
#X connect 10 0 15 0;
#X connect 13 0 10 0;
#X connect 14 0 13 0;
#X connect 18 0 13 0;
#X connect 18 0 16 0;
#X connect 19 0 10 1;
#X connect 19 0 14 0;
#X connect 20 0 8 1;
#X connect 20 0 17 0;
#X connect 21 0 9 1;
#X connect 21 0 12 0;
#X restore 281 420 pd voice 22;
#N canvas 0 50 450 300 voice23 0;
#X obj 76 186 *~ 44100;
#X obj 76 129 phasor~ 1;
#X obj 71 289 outlet~;
#X obj 76 37 inlet;
#X text 69 17 freq 1 assuming at refPitch;
#X obj 76 79 /;
#X obj 91 58 r referencePitch;
#X obj 71 265 tabread4~ vocalsample1;
#X obj 76 104 *;
#X obj 75 242 +~;
#X obj 158 162 -;
#X obj 46 83 bng 15 250 50 0 empty empty empty 17 7 0 10 -262144 -1
-1;
#X floatatom 138 242 5 0 0 0 - - -, f 5;
#X obj 155 137 f;
#X obj 230 152 bng 15 250 50 0 empty empty empty 17 7 0 10 -262144
-1 -1;
#X floatatom 201 203 8 0 0 0 - - -, f 8;
#X floatatom 259 137 5 0 0 0 - - -, f 5;
#X floatatom 29 138 5 0 0 0 - - -, f 5;
#X obj 190 92 r e2;
#X obj 226 92 r s2;
#X obj 131 93 r freq2;
#X obj 101 214 r s2;
#X connect 0 0 9 0;
#X connect 1 0 0 0;
#X connect 3 0 5 0;
#X connect 3 0 11 0;
#X connect 5 0 8 0;
#X connect 6 0 5 1;
#X connect 7 0 2 0;
#X connect 8 0 1 0;
#X connect 9 0 7 0;
#X connect 10 0 0 1;
#X connect 10 0 15 0;
#X connect 13 0 10 0;
#X connect 14 0 13 0;
#X connect 18 0 13 0;
#X connect 18 0 16 0;
#X connect 19 0 10 1;
#X connect 19 0 14 0;
#X connect 20 0 8 1;
#X connect 20 0 17 0;
#X connect 21 0 9 1;
#X connect 21 0 12 0;
#X restore 340 550 pd voice23;
#X obj 1260 431 hsl 128 15 0 44100 0 0 empty start1 empty -2 -8 0 10
-203904 -1 -1 0 1;
#X text 1304 444 start (sample #);
#X floatatom 1257 446 7 0 0 0 - - -, f 7;
#X obj 1259 468 hsl 128 15 0 44100 0 0 empty end1 empty -2 -8 0 10
-203904 -1 -1 12700 0;
#X floatatom 1256 483 7 0 0 0 - - -, f 7;
#X text 1302 480 end (sample #);
#X obj 972 384 s s3;
#X obj 973 410 s e3;
#X obj 858 277 -;
#X obj 828 254 f;
#X obj 898 267 bng 15 250 50 0 empty empty empty 17 7 0 10 -262144
-1 -1;
#X obj 859 300 / 44100;
#X obj 858 244 r e3;
#X obj 894 245 r s3;
#N canvas 0 50 450 354 voice31 0;
#X obj 67 193 *~ 44100;
#X obj 67 136 phasor~ 1;
#X obj 62 296 outlet~;
#X obj 67 44 inlet;
#X text 60 24 freq 1 assuming at refPitch;
#X obj 67 86 /;
#X obj 82 65 r referencePitch;
#X obj 67 111 *;
#X obj 66 249 +~;
#X obj 149 169 -;
#X obj 37 90 bng 15 250 50 0 empty empty empty 17 7 0 10 -262144 -1
-1;
#X floatatom 129 249 5 0 0 0 - - -, f 5;
#X obj 146 144 f;
#X obj 221 159 bng 15 250 50 0 empty empty empty 17 7 0 10 -262144
-1 -1;
#X floatatom 192 210 8 0 0 0 - - -, f 8;
#X floatatom 250 144 5 0 0 0 - - -, f 5;
#X floatatom 20 145 5 0 0 0 - - -, f 5;
#X obj 62 272 tabread4~ vocalsample3;
#X obj 100 212 r s3;
#X obj 122 100 r freq3;
#X obj 181 99 r e3;
#X obj 217 99 r s3;
#X connect 0 0 8 0;
#X connect 1 0 0 0;
#X connect 3 0 5 0;
#X connect 3 0 10 0;
#X connect 5 0 7 0;
#X connect 6 0 5 1;
#X connect 7 0 1 0;
#X connect 8 0 17 0;
#X connect 9 0 0 1;
#X connect 9 0 14 0;
#X connect 12 0 9 0;
#X connect 13 0 12 0;
#X connect 17 0 2 0;
#X connect 18 0 11 0;
#X connect 18 0 8 1;
#X connect 19 0 7 1;
#X connect 19 0 16 0;
#X connect 20 0 12 0;
#X connect 20 0 15 0;
#X connect 21 0 9 1;
#X connect 21 0 13 0;
#X restore 501 267 pd voice31;
#N canvas 0 50 376 357 voice32 0;
#X obj 67 193 *~ 44100;
#X obj 67 136 phasor~ 1;
#X obj 62 296 outlet~;
#X obj 67 44 inlet;
#X text 60 24 freq 1 assuming at refPitch;
#X obj 67 86 /;
#X obj 82 65 r referencePitch;
#X obj 67 111 *;
#X obj 66 249 +~;
#X obj 149 169 -;
#X obj 37 90 bng 15 250 50 0 empty empty empty 17 7 0 10 -262144 -1
-1;
#X floatatom 129 249 5 0 0 0 - - -, f 5;
#X obj 146 144 f;
#X obj 221 159 bng 15 250 50 0 empty empty empty 17 7 0 10 -262144
-1 -1;
#X floatatom 192 210 8 0 0 0 - - -, f 8;
#X floatatom 250 144 5 0 0 0 - - -, f 5;
#X floatatom 20 145 5 0 0 0 - - -, f 5;
#X obj 62 272 tabread4~ vocalsample3;
#X obj 100 212 r s3;
#X obj 122 100 r freq3;
#X obj 181 99 r e3;
#X obj 217 99 r s3;
#X connect 0 0 8 0;
#X connect 1 0 0 0;
#X connect 3 0 5 0;
#X connect 3 0 10 0;
#X connect 5 0 7 0;
#X connect 6 0 5 1;
#X connect 7 0 1 0;
#X connect 8 0 17 0;
#X connect 9 0 0 1;
#X connect 9 0 14 0;
#X connect 12 0 9 0;
#X connect 13 0 12 0;
#X connect 17 0 2 0;
#X connect 18 0 11 0;
#X connect 18 0 8 1;
#X connect 19 0 7 1;
#X connect 19 0 16 0;
#X connect 20 0 12 0;
#X connect 20 0 15 0;
#X connect 21 0 9 1;
#X connect 21 0 13 0;
#X restore 537 404 pd voice32;
#N canvas 0 50 346 374 voice33 0;
#X obj 67 193 *~ 44100;
#X obj 67 136 phasor~ 1;
#X obj 62 296 outlet~;
#X obj 67 44 inlet;
#X text 60 24 freq 1 assuming at refPitch;
#X obj 67 86 /;
#X obj 82 65 r referencePitch;
#X obj 67 111 *;
#X obj 66 249 +~;
#X obj 149 169 -;
#X obj 37 90 bng 15 250 50 0 empty empty empty 17 7 0 10 -262144 -1
-1;
#X floatatom 129 249 5 0 0 0 - - -, f 5;
#X obj 146 144 f;
#X obj 221 159 bng 15 250 50 0 empty empty empty 17 7 0 10 -262144
-1 -1;
#X floatatom 192 210 8 0 0 0 - - -, f 8;
#X floatatom 250 144 5 0 0 0 - - -, f 5;
#X floatatom 20 145 5 0 0 0 - - -, f 5;
#X obj 62 272 tabread4~ vocalsample3;
#X obj 100 212 r s3;
#X obj 122 100 r freq3;
#X obj 181 99 r e3;
#X obj 217 99 r s3;
#X connect 0 0 8 0;
#X connect 1 0 0 0;
#X connect 3 0 5 0;
#X connect 3 0 10 0;
#X connect 5 0 7 0;
#X connect 6 0 5 1;
#X connect 7 0 1 0;
#X connect 8 0 17 0;
#X connect 9 0 0 1;
#X connect 9 0 14 0;
#X connect 12 0 9 0;
#X connect 13 0 12 0;
#X connect 17 0 2 0;
#X connect 18 0 11 0;
#X connect 18 0 8 1;
#X connect 19 0 7 1;
#X connect 19 0 16 0;
#X connect 20 0 12 0;
#X connect 20 0 15 0;
#X connect 21 0 9 1;
#X connect 21 0 13 0;
#X restore 574 511 pd voice33;
#X text 854 654 outlet for ref pitch;
#X text 1307 128;
#X obj 1255 162 hsl 128 15 10 10000 1 0 empty empty empty -2 -8 0 10
-204786 -1 -1 0 0;
#X connect 0 0 9 0;
#X connect 0 1 9 0;
#X connect 1 0 8 0;
#X connect 2 0 3 0;
#X connect 2 0 4 0;
#X connect 2 0 115 0;
#X connect 4 0 1 0;
#X connect 4 0 18 0;
#X connect 5 0 94 0;
#X connect 7 0 6 0;
#X connect 8 0 10 0;
#X connect 9 0 10 0;
#X connect 9 0 15 0;
#X connect 9 0 114 0;
#X connect 11 0 14 0;
#X connect 12 0 13 0;
#X connect 12 0 17 0;
#X connect 12 0 117 0;
#X connect 13 0 11 0;
#X connect 13 0 33 0;
#X connect 14 0 15 0;
#X connect 16 0 99 0;
#X connect 18 0 1 0;
#X connect 19 0 21 0;
#X connect 20 0 21 0;
#X connect 21 0 22 0;
#X connect 22 0 28 0;
#X connect 23 0 20 0;
#X connect 24 0 19 0;
#X connect 24 0 23 0;
#X connect 26 0 27 0;
#X connect 27 0 111 0;
#X connect 29 0 30 0;
#X connect 30 0 21 1;
#X connect 31 0 2 0;
#X connect 33 0 11 0;
#X connect 34 0 12 0;
#X connect 36 0 104 0;
#X connect 37 0 40 0;
#X connect 38 0 39 0;
#X connect 38 0 43 0;
#X connect 38 0 119 0;
#X connect 39 0 37 0;
#X connect 39 0 41 0;
#X connect 40 0 114 0;
#X connect 41 0 37 0;
#X connect 42 0 38 0;
#X connect 44 0 19 0;
#X connect 44 0 23 0;
#X connect 46 0 222 0;
#X connect 47 0 19 0;
#X connect 47 0 23 0;
#X connect 49 0 206 0;
#X connect 51 0 207 0;
#X connect 53 0 193 0;
#X connect 55 0 194 0;
#X connect 57 0 223 0;
#X connect 59 0 224 0;
#X connect 60 0 27 0;
#X connect 89 0 90 0;
#X connect 89 0 177 0;
#X connect 89 0 178 0;
#X connect 90 0 100 0;
#X connect 90 0 106 0;
#X connect 90 0 227 0;
#X connect 91 0 90 0;
#X connect 100 0 101 0;
#X connect 100 0 116 0;
#X connect 106 0 107 0;
#X connect 106 0 121 0;
#X connect 111 0 109 0;
#X connect 111 0 25 0;
#X connect 112 0 18 1;
#X connect 118 0 33 1;
#X connect 120 0 41 1;
#X connect 124 0 126 0;
#X connect 125 0 127 0;
#X connect 130 0 132 0;
#X connect 131 0 134 0;
#X connect 137 0 139 0;
#X connect 138 0 133 0;
#X connect 140 0 144 0;
#X connect 142 0 143 0;
#X connect 143 0 141 0;
#X connect 144 0 152 0;
#X connect 145 0 148 0;
#X connect 146 0 147 0;
#X connect 147 0 150 1;
#X connect 147 0 154 0;
#X connect 148 0 155 0;
#X connect 150 0 149 0;
#X connect 151 0 153 0;
#X connect 153 0 150 0;
#X connect 154 0 153 0;
#X connect 156 0 227 0;
#X connect 157 0 100 0;
#X connect 158 0 106 0;
#X connect 159 0 160 0;
#X connect 160 0 161 0;
#X connect 160 0 163 0;
#X connect 162 0 159 0;
#X connect 162 1 160 1;
#X connect 164 0 165 0;
#X connect 165 0 166 0;
#X connect 165 0 168 0;
#X connect 167 0 164 0;
#X connect 167 1 165 1;
#X connect 169 0 170 0;
#X connect 170 0 171 0;
#X connect 170 0 173 0;
#X connect 172 0 169 0;
#X connect 172 1 170 1;
#X connect 174 0 176 0;
#X connect 175 0 174 0;
#X connect 177 0 145 0;
#X connect 177 0 190 0;
#X connect 177 0 211 0;
#X connect 178 0 140 0;
#X connect 178 0 187 0;
#X connect 178 0 208 0;
#X connect 179 0 184 0;
#X connect 180 0 179 1;
#X connect 180 0 183 0;
#X connect 181 0 179 0;
#X connect 181 0 182 0;
#X connect 182 0 179 0;
#X connect 183 0 182 0;
#X connect 184 0 162 0;
#X connect 187 0 189 0;
#X connect 189 0 196 0;
#X connect 190 0 191 0;
#X connect 191 0 197 0;
#X connect 193 0 52 0;
#X connect 194 0 54 0;
#X connect 198 0 201 0;
#X connect 199 0 198 0;
#X connect 200 0 199 0;
#X connect 201 0 167 0;
#X connect 202 0 198 0;
#X connect 202 0 199 0;
#X connect 203 0 198 1;
#X connect 203 0 200 0;
#X connect 204 0 35 0;
#X connect 205 0 204 0;
#X connect 206 0 48 0;
#X connect 207 0 50 0;
#X connect 208 0 210 0;
#X connect 210 0 214 0;
#X connect 211 0 212 0;
#X connect 212 0 215 0;
#X connect 216 0 219 0;
#X connect 217 0 216 0;
#X connect 218 0 217 0;
#X connect 219 0 172 0;
#X connect 220 0 216 0;
#X connect 220 0 217 0;
#X connect 221 0 216 1;
#X connect 221 0 218 0;
#X connect 222 0 45 0;
#X connect 223 0 56 0;
#X connect 224 0 58 0;
#X connect 227 0 95 0;
#X connect 227 0 113 0;
#X coords 0 -1 1 1 380 600 2 1025 15;
