#N canvas -8 -8 1536 781 10;
#X obj 206 691 looper;
#X obj 9 3 getSample;
#N canvas 0 50 1540 781 noteIn 0;
#X obj 1101 102 cnv 15 248 296 empty empty empty 20 12 0 14 -261682
-66577 0;
#X obj 161 349 select 0;
#X obj 206 370 bng 15 250 50 0 empty empty empty 17 7 0 10 -262144
-1 -1;
#X obj 133 392 adsr;
#X obj 318 349 select 0;
#X obj 363 370 bng 15 250 50 0 empty empty empty 17 7 0 10 -262144
-1 -1;
#X obj 290 392 adsr;
#X obj 297 372 bng 15 250 50 0 empty empty empty 17 7 0 10 -262144
-1 -1;
#X obj 481 349 select 0;
#X obj 526 370 bng 15 250 50 0 empty empty empty 17 7 0 10 -262144
-1 -1;
#X obj 453 392 adsr;
#X obj 424 351 mtof;
#X obj 460 372 bng 15 250 50 0 empty empty empty 17 7 0 10 -262144
-1 -1;
#X obj 651 349 select 0;
#X obj 696 370 bng 15 250 50 0 empty empty empty 17 7 0 10 -262144
-1 -1;
#X obj 613 392 adsr;
#X obj 594 351 mtof;
#X obj 630 372 bng 15 250 50 0 empty empty empty 17 7 0 10 -262144
-1 -1;
#X obj 821 349 select 0;
#X obj 866 370 bng 15 250 50 0 empty empty empty 17 7 0 10 -262144
-1 -1;
#X obj 773 392 adsr;
#X obj 764 351 mtof;
#X obj 800 372 bng 15 250 50 0 empty empty empty 17 7 0 10 -262144
-1 -1;
#X obj 1001 349 select 0;
#X obj 1046 370 bng 15 250 50 0 empty empty empty 17 7 0 10 -262144
-1 -1;
#X obj 933 392 adsr;
#X obj 944 351 mtof;
#X obj 980 372 bng 15 250 50 0 empty empty empty 17 7 0 10 -262144
-1 -1;
#X obj 1190 113 adsr;
#X obj 1211 28 loadbang;
#X obj 1184 56 f 20;
#X obj 1226 63 f 2600;
#X obj 1289 65 f 60;
#X obj 1331 64 f 2500;
#X obj 159 311 inlet;
#X obj 315 308 inlet;
#X obj 483 316 inlet;
#X obj 653 318 inlet;
#X obj 819 316 inlet;
#X obj 1001 322 inlet;
#X text 1109 147 master adsr;
#X text 1101 196 6 midi vals in;
#X text 1106 252 envelope out;
#X obj 133 696 outlet~;
#X obj 290 694 outlet~;
#X obj 454 691 outlet~;
#X obj 614 692 outlet~;
#X obj 774 692 outlet~;
#X obj 933 693 outlet~;
#X connect 1 0 3 1;
#X connect 1 1 2 0;
#X connect 2 0 3 0;
#X connect 3 0 43 0;
#X connect 4 0 6 1;
#X connect 4 0 7 0;
#X connect 4 1 5 0;
#X connect 5 0 6 0;
#X connect 6 0 44 0;
#X connect 8 0 10 1;
#X connect 8 0 12 0;
#X connect 8 1 9 0;
#X connect 9 0 10 0;
#X connect 10 0 45 0;
#X connect 13 0 15 1;
#X connect 13 0 17 0;
#X connect 13 1 14 0;
#X connect 14 0 15 0;
#X connect 15 0 46 0;
#X connect 18 0 20 1;
#X connect 18 0 22 0;
#X connect 18 1 19 0;
#X connect 19 0 20 0;
#X connect 20 0 47 0;
#X connect 23 0 25 1;
#X connect 23 0 27 0;
#X connect 23 1 24 0;
#X connect 24 0 25 0;
#X connect 25 0 48 0;
#X connect 28 1 3 2;
#X connect 28 1 6 2;
#X connect 28 1 10 2;
#X connect 28 1 15 2;
#X connect 28 1 20 2;
#X connect 28 1 25 2;
#X connect 28 2 3 3;
#X connect 28 2 6 3;
#X connect 28 2 10 3;
#X connect 28 2 15 3;
#X connect 28 2 20 3;
#X connect 28 2 25 3;
#X connect 28 3 25 4;
#X connect 28 3 20 4;
#X connect 28 3 15 4;
#X connect 28 3 10 4;
#X connect 28 3 6 4;
#X connect 28 3 3 4;
#X connect 28 4 3 5;
#X connect 28 4 6 5;
#X connect 28 4 10 5;
#X connect 28 4 15 5;
#X connect 28 4 20 5;
#X connect 28 4 25 5;
#X connect 29 0 30 0;
#X connect 29 0 31 0;
#X connect 29 0 32 0;
#X connect 29 0 33 0;
#X connect 30 0 28 2;
#X connect 31 0 28 3;
#X connect 32 0 28 4;
#X connect 33 0 28 5;
#X connect 34 0 1 0;
#X connect 35 0 4 0;
#X connect 36 0 8 0;
#X connect 37 0 13 0;
#X connect 38 0 18 0;
#X connect 39 0 23 0;
#X coords 0 -1 1 1 250 300 1 1100 100;
#X restore 421 245 pd noteIn;
#X obj 469 17 notein;
#X obj 469 113 pack 0 0 0;
#X obj 403 176 unpack 0 0;
#X obj 403 203 mtof;
#X obj 467 176 unpack 0 0;
#X obj 467 203 mtof;
#X obj 531 176 unpack 0 0;
#X obj 531 203 mtof;
#X obj 595 175 unpack 0 0;
#X obj 595 202 mtof;
#X obj 469 44 poly 6 1;
#X obj 469 141 route 1 2 3 4 5 6;
#X obj 659 175 unpack 0 0;
#X obj 659 202 mtof;
#X obj 723 175 unpack 0 0;
#X obj 723 202 mtof;
#X obj 50 618 *~;
#X obj 9 618 *~;
#X obj 174 620 *~;
#X obj 133 620 *~;
#X obj 299 618 *~;
#X obj 258 618 *~;
#X obj 710 740 dac~;
#X obj 170 651 *~ 0.5;
#X msg 1435 46 \; pd dsp 1;
#X obj 1435 23 loadbang;
#X obj 830 284 bassSequencer;
#X obj 830 158 bng 100 250 50 0 empty empty empty 17 7 0 10 -228856
-1 -1;
#X obj 680 614 bng 15 250 50 0 empty empty empty 17 7 0 10 -262144
-1 -1;
#X obj 705 614 bng 15 250 50 0 empty empty empty 17 7 0 10 -262144
-1 -1;
#X obj 729 614 bng 15 250 50 0 empty empty empty 17 7 0 10 -262144
-1 -1;
#X obj 755 614 bng 15 250 50 0 empty empty empty 17 7 0 10 -262144
-1 -1;
#X obj 1277 460 bng 15 250 50 0 empty empty empty 17 7 0 10 -262144
-1 -1;
#X obj 1269 479 f 1;
#X obj 1142 558 f 2;
#X obj 1188 559 f 3;
#X obj 1150 519 select 1 2 3;
#X obj 1227 559 f 4;
#X obj 1149 592 oscripples;
#X obj 469 80 +;
#X obj 989 673 pan;
#X obj 988 627 *~ 0.1;
#X obj 942 627 *~ 0.9;
#X obj 976 587 *~ 0.6;
#X obj 396 748 *~ 0.5;
#X obj 1084 662 *~ 0.6;
#X connect 0 0 47 0;
#X connect 1 0 20 0;
#X connect 1 1 19 0;
#X connect 1 3 22 0;
#X connect 1 4 21 0;
#X connect 1 6 24 0;
#X connect 1 7 23 0;
#X connect 2 0 20 1;
#X connect 2 1 19 1;
#X connect 2 2 22 1;
#X connect 2 3 21 1;
#X connect 2 4 24 1;
#X connect 2 5 23 1;
#X connect 3 0 13 0;
#X connect 3 1 13 1;
#X connect 4 0 14 0;
#X connect 5 0 6 0;
#X connect 5 1 2 0;
#X connect 6 0 1 1;
#X connect 7 0 8 0;
#X connect 7 1 2 1;
#X connect 8 0 1 5;
#X connect 9 0 10 0;
#X connect 9 1 2 2;
#X connect 10 0 1 9;
#X connect 11 0 12 0;
#X connect 11 1 2 3;
#X connect 12 0 1 2;
#X connect 13 0 42 0;
#X connect 13 1 4 1;
#X connect 13 2 4 2;
#X connect 14 0 5 0;
#X connect 14 1 7 0;
#X connect 14 2 9 0;
#X connect 14 3 11 0;
#X connect 14 4 15 0;
#X connect 14 5 17 0;
#X connect 15 0 16 0;
#X connect 15 1 2 4;
#X connect 16 0 1 6;
#X connect 17 0 18 0;
#X connect 17 1 2 5;
#X connect 18 0 1 10;
#X connect 19 0 26 0;
#X connect 20 0 26 0;
#X connect 21 0 26 0;
#X connect 22 0 26 0;
#X connect 23 0 26 0;
#X connect 24 0 26 0;
#X connect 26 0 25 0;
#X connect 26 0 0 0;
#X connect 26 0 25 1;
#X connect 28 0 27 0;
#X connect 29 0 46 0;
#X connect 29 1 35 0;
#X connect 30 0 29 0;
#X connect 31 0 0 1;
#X connect 32 0 0 2;
#X connect 33 0 0 3;
#X connect 34 0 0 4;
#X connect 35 0 36 0;
#X connect 36 0 39 0;
#X connect 37 0 36 1;
#X connect 38 0 36 1;
#X connect 39 0 37 0;
#X connect 39 0 31 0;
#X connect 39 1 38 0;
#X connect 39 1 32 0;
#X connect 39 1 41 0;
#X connect 39 2 40 0;
#X connect 39 2 33 0;
#X connect 40 0 36 1;
#X connect 41 0 48 0;
#X connect 42 0 4 0;
#X connect 43 0 25 0;
#X connect 43 1 25 1;
#X connect 44 0 43 0;
#X connect 45 0 25 1;
#X connect 45 0 25 0;
#X connect 46 0 45 0;
#X connect 46 0 44 0;
#X connect 47 0 25 0;
#X connect 47 0 25 1;
#X connect 48 0 43 0;
