#N canvas 208 115 451 300 10;
#X obj 299 129 abs~;
#X obj 315 160 expr~ 1-$v1;
#X obj 241 178 *~;
#X obj 292 187 *~;
#X obj 301 99 osc~ 0.25;
#X obj 294 223 outlet~;
#X obj 224 223 outlet~;
#X obj 195 32 inlet~;
#X obj 310 37 loadbang;
#X obj 101 102 cnv 15 68 31 empty empty empty 20 12 0 14 -233017 -66577
0;
#X text 102 100 pan it!;
#X obj 297 74 f 0.25;
#X floatatom 129 116 5 0 0 0 - - -, f 5;
#X text 101 115 rate;
#X obj 268 35 inlet;
#X connect 0 0 1 0;
#X connect 0 0 2 1;
#X connect 1 0 3 1;
#X connect 2 0 6 0;
#X connect 3 0 5 0;
#X connect 4 0 0 0;
#X connect 7 0 2 0;
#X connect 7 0 3 0;
#X connect 8 0 11 0;
#X connect 11 0 12 0;
#X connect 12 0 4 0;
#X connect 14 0 11 0;
#X coords 0 -1 1 1 70 35 1 100 100;
