#N canvas 0 24 1536 781 10;
#X obj 181 210 cnv 15 34 78 empty empty empty 20 12 0 14 -191407 -66577
0;
#X obj 216 210 cnv 15 34 78 empty empty empty 20 12 0 14 -162280 -66577
0;
#X obj 251 210 cnv 15 34 78 empty empty empty 20 12 0 14 -191407 -66577
0;
#X obj 286 210 cnv 15 34 78 empty empty empty 20 12 0 14 -162280 -66577
0;
#X obj 321 210 cnv 15 34 78 empty empty empty 20 12 0 14 -191407 -66577
0;
#X obj 356 210 cnv 15 34 78 empty empty empty 20 12 0 14 -162280 -66577
0;
#X obj 391 210 cnv 15 34 78 empty empty empty 20 12 0 14 -191407 -66577
0;
#X obj 426 210 cnv 15 34 78 empty empty empty 20 12 0 14 -162280 -66577
0;
#X obj 461 210 cnv 15 34 78 empty empty empty 20 12 0 14 -191407 -66577
0;
#X obj 496 210 cnv 15 34 78 empty empty empty 20 12 0 14 -162280 -66577
0;
#X obj 531 210 cnv 15 34 78 empty empty empty 20 12 0 14 -191407 -66577
0;
#X obj 566 210 cnv 15 34 78 empty empty empty 20 12 0 14 -162280 -66577
0;
#X obj 601 210 cnv 15 34 78 empty empty empty 20 12 0 14 -191407 -66577
0;
#X obj 636 210 cnv 15 34 78 empty empty empty 20 12 0 14 -162280 -66577
0;
#X obj 671 210 cnv 15 34 78 empty empty empty 20 12 0 14 -191407 -66577
0;
#X obj 706 210 cnv 15 34 78 empty empty empty 20 12 0 14 -162280 -66577
0;
#X obj 105 43 inlet;
#X text 91 19 clock inlet;
#X obj 124 570 outlet;
#X text 46 588 outputs the note in midi vals;
#X obj 105 64 f 0;
#X obj 104 87 + 1;
#X floatatom 106 135 5 0 0 0 - - -, f 5;
#X text 191 210 1;
#X floatatom 183 226 5 0 0 0 - - -, f 5;
#X floatatom 253 249 5 0 0 0 - - -, f 5;
#X obj 253 268 tgl 15 0 empty empty empty 17 7 0 10 -262144 -1 -1 1
1;
#X obj 28 190 loadbang;
#X obj 39 232 f 100;
#X floatatom 253 226 5 0 0 0 - - -, f 5;
#X floatatom 288 249 5 0 0 0 - - -, f 5;
#X obj 288 268 tgl 15 0 empty empty empty 17 7 0 10 -262144 -1 -1 0
1;
#X floatatom 288 226 5 0 0 0 - - -, f 5;
#X floatatom 323 249 5 0 0 0 - - -, f 5;
#X obj 323 268 tgl 15 0 empty empty empty 17 7 0 10 -262144 -1 -1 1
1;
#X floatatom 323 226 5 0 0 0 - - -, f 5;
#X floatatom 358 249 5 0 0 0 - - -, f 5;
#X obj 358 268 tgl 15 0 empty empty empty 17 7 0 10 -262144 -1 -1 0
1;
#X floatatom 358 226 5 0 0 0 - - -, f 5;
#X floatatom 183 249 5 0 0 0 - - -, f 5;
#X obj 183 268 tgl 15 0 empty empty empty 17 7 0 10 -262144 -1 -1 1
1;
#X floatatom 218 226 5 0 0 0 - - -, f 5;
#X floatatom 218 249 5 0 0 0 - - -, f 5;
#X obj 218 268 tgl 15 0 empty empty empty 17 7 0 10 -262144 -1 -1 0
1;
#X text 225 210 2;
#X text 258 209 3;
#X text 294 209 4;
#X text 333 209 5;
#X text 362 209 6;
#X floatatom 393 226 5 0 0 0 - - -, f 5;
#X floatatom 463 249 5 0 0 0 - - -, f 5;
#X obj 463 268 tgl 15 0 empty empty empty 17 7 0 10 -262144 -1 -1 1
1;
#X floatatom 463 226 5 0 0 0 - - -, f 5;
#X floatatom 498 249 5 0 0 0 - - -, f 5;
#X obj 498 268 tgl 15 0 empty empty empty 17 7 0 10 -262144 -1 -1 0
1;
#X floatatom 498 226 5 0 0 0 - - -, f 5;
#X floatatom 533 249 5 0 0 0 - - -, f 5;
#X obj 533 268 tgl 15 0 empty empty empty 17 7 0 10 -262144 -1 -1 1
1;
#X floatatom 533 226 5 0 0 0 - - -, f 5;
#X floatatom 568 249 5 0 0 0 - - -, f 5;
#X obj 568 268 tgl 15 0 empty empty empty 17 7 0 10 -262144 -1 -1 0
1;
#X floatatom 568 226 5 0 0 0 - - -, f 5;
#X floatatom 393 249 5 0 0 0 - - -, f 5;
#X obj 393 268 tgl 15 0 empty empty empty 17 7 0 10 -262144 -1 -1 1
1;
#X floatatom 428 226 5 0 0 0 - - -, f 5;
#X floatatom 428 249 5 0 0 0 - - -, f 5;
#X obj 428 268 tgl 15 0 empty empty empty 17 7 0 10 -262144 -1 -1 0
1;
#X text 398 209 7;
#X text 434 209 8;
#X text 470 209 9;
#X text 501 208 10;
#X text 538 208 11;
#X text 572 209 12;
#X floatatom 251 503 5 0 0 0 - - -, f 5;
#X text 471 592 sequencer clock out;
#X obj 501 574 outlet;
#X obj 35 254 bng 15 250 50 0 empty empty empty 17 7 0 10 -262144 -1
-1;
#X obj 28 276 f 1;
#X floatatom 121 464 5 0 0 0 - - -, f 5;
#X text 175 502 current midi;
#X floatatom 338 506 5 0 0 0 - - -, f 5;
#X text 369 503 current vol;
#X text 265 26 in 2;
#X text 317 25 in 3;
#X text 374 25 in 4;
#X text 427 25 in 5;
#X text 480 24 in 6;
#X text 535 23 in 7;
#X text 583 23 in 8;
#X text 634 23 in 9;
#X text 681 23 in 10;
#X text 731 22 in 11;
#X text 782 22 in 12;
#X obj 161 99 unpack 0 0 0;
#X obj 203 76 unpack 0 0 0;
#X obj 261 102 unpack 0 0 0;
#X obj 322 75 unpack 0 0 0;
#X obj 367 103 unpack 0 0 0;
#X obj 428 76 unpack 0 0 0;
#X obj 459 106 unpack 0 0 0;
#X obj 534 77 unpack 0 0 0;
#X obj 592 103 unpack 0 0 0;
#X obj 653 76 unpack 0 0 0;
#X obj 698 104 unpack 0 0 0;
#X obj 759 77 unpack 0 0 0;
#X obj 342 541 dbtorms;
#X text 301 592 relative volume out;
#X obj 329 565 outlet;
#X obj 33 508 bng 15 250 50 0 empty empty empty 17 7 0 10 -262144 -1
-1;
#X obj 99 398 select 0;
#X obj 99 373 *;
#X obj 134 374 *;
#X obj 99 422 f -1500;
#X obj 173 399 select 0;
#X obj 173 374 *;
#X obj 210 375 *;
#X obj 173 423 f -1500;
#X obj 107 152 + 1;
#X obj 250 400 select 0;
#X obj 250 375 *;
#X obj 287 376 *;
#X obj 250 424 f -1500;
#X obj 319 400 select 0;
#X obj 319 375 *;
#X obj 356 376 *;
#X obj 319 424 f -1500;
#X obj 392 400 select 0;
#X obj 392 375 *;
#X obj 429 376 *;
#X obj 392 424 f -1500;
#X obj 460 401 select 0;
#X obj 460 376 *;
#X obj 497 377 *;
#X obj 460 425 f -1500;
#X obj 525 401 select 0;
#X obj 525 376 *;
#X obj 562 377 *;
#X obj 525 425 f -1500;
#X obj 597 401 select 0;
#X obj 597 376 *;
#X obj 634 377 *;
#X obj 597 425 f -1500;
#X obj 671 402 select 0;
#X obj 671 377 *;
#X obj 708 378 *;
#X obj 671 426 f -1500;
#X obj 743 402 select 0;
#X obj 743 377 *;
#X obj 780 378 *;
#X obj 743 426 f -1500;
#X obj 815 402 select 0;
#X obj 815 377 *;
#X obj 852 378 *;
#X obj 815 426 f -1500;
#X obj 882 402 select 0;
#X obj 882 377 *;
#X obj 919 378 *;
#X obj 882 426 f -1500;
#X obj 35 139 -;
#X obj 35 161 + 1;
#X obj 35 117 bng 15 250 50 0 empty empty empty 17 7 0 10 -262144 -1
-1;
#X text 205 27 in 1;
#X obj 956 403 select 0;
#X obj 956 378 *;
#X obj 993 379 *;
#X obj 956 427 f -1500;
#X obj 1028 403 select 0;
#X obj 1028 378 *;
#X obj 1065 379 *;
#X obj 1028 427 f -1500;
#X obj 1100 403 select 0;
#X obj 1100 378 *;
#X obj 1137 379 *;
#X obj 1100 427 f -1500;
#X obj 1167 403 select 0;
#X obj 1167 378 *;
#X obj 1204 379 *;
#X obj 1167 427 f -1500;
#X floatatom 603 249 5 0 0 0 - - -, f 5;
#X obj 603 268 tgl 15 0 empty empty empty 17 7 0 10 -262144 -1 -1 1
1;
#X floatatom 603 226 5 0 0 0 - - -, f 5;
#X floatatom 638 249 5 0 0 0 - - -, f 5;
#X obj 638 268 tgl 15 0 empty empty empty 17 7 0 10 -262144 -1 -1 0
1;
#X floatatom 638 226 5 0 0 0 - - -, f 5;
#X floatatom 673 249 5 0 0 0 - - -, f 5;
#X obj 673 269 tgl 15 0 empty empty empty 17 7 0 10 -262144 -1 -1 1
1;
#X floatatom 673 226 5 0 0 0 - - -, f 5;
#X floatatom 708 249 5 0 0 0 - - -, f 5;
#X obj 708 268 tgl 15 0 empty empty empty 17 7 0 10 -262144 -1 -1 0
1;
#X floatatom 708 226 5 0 0 0 - - -, f 5;
#X text 610 208 13;
#X text 641 208 14;
#X text 678 208 15;
#X text 712 209 16;
#X obj 789 103 unpack 0 0 0;
#X obj 850 76 unpack 0 0 0;
#X obj 895 104 unpack 0 0 0;
#X obj 956 77 unpack 0 0 0;
#X text 831 23 in 13;
#X text 878 23 in 14;
#X text 928 22 in 15;
#X text 979 22 in 16;
#X text 1106 203 one based indexing \, except for inlets. but this
makes the inlet's numbering consistent with external numbering. 1 based
indexing works better musically. music outside \, code inside;
#X obj 106 172 select 1 2 3 4 5 6 7 8 9 10 11 12 13 14 15 16;
#X obj 101 289 cnv 15 658 29 empty empty empty 20 12 0 14 -228856 -66577
0;
#X floatatom 354 295 5 0 0 0 - - -, f 5;
#X text 236 295 lower bound (1-12):;
#X text 417 295 upper bound (1-12):;
#X floatatom 535 295 5 0 0 0 - - -, f 5;
#X floatatom 192 295 5 0 0 0 - - -, f 5;
#X text 104 295 current step #;
#X obj 101 202 cnv 15 658 7 empty empty empty 20 12 0 14 -228856 -66577
0;
#X obj 741 210 cnv 15 18 78 empty empty empty 20 12 0 14 -228856 -66577
0;
#X obj 101 210 cnv 15 80 78 empty empty empty 20 12 0 14 -228856 -66577
0;
#X text 125 226 midi val:;
#X text 107 249 volume (db):;
#X text 137 268 on/off:;
#X obj 208 47 inlet;
#X obj 268 46 inlet;
#X obj 320 45 inlet;
#X obj 377 45 inlet;
#X obj 430 45 inlet;
#X obj 483 44 inlet;
#X obj 538 43 inlet;
#X obj 586 43 inlet;
#X obj 637 43 inlet;
#X obj 684 43 inlet;
#X obj 734 42 inlet;
#X obj 785 42 inlet;
#X obj 834 43 inlet;
#X obj 881 43 inlet;
#X obj 931 42 inlet;
#X obj 982 42 inlet;
#X text 1068 33 each of these unputs takes a message with 3 space-delimited
arguments(NO commas): first is midi value \, next is volume in db \,
and lastly is 0/1 for turning that step on/off;
#X obj 14 298 f 16;
#X obj 106 113 % 16;
#X obj 650 575 outlet;
#X obj 650 549 select 1;
#X obj 674 499 - 1;
#X text 610 594 outputs the last bang before wrapping around for chaining
purposes;
#X obj 650 526 == 0;
#X connect 16 0 20 0;
#X connect 16 0 108 0;
#X connect 20 0 21 0;
#X connect 21 0 20 1;
#X connect 21 0 235 0;
#X connect 22 0 117 0;
#X connect 24 0 110 0;
#X connect 25 0 120 0;
#X connect 26 0 119 1;
#X connect 26 0 120 1;
#X connect 27 0 28 0;
#X connect 27 0 76 0;
#X connect 27 0 77 0;
#X connect 27 0 234 0;
#X connect 28 0 39 0;
#X connect 28 0 42 0;
#X connect 28 0 25 0;
#X connect 28 0 30 0;
#X connect 28 0 33 0;
#X connect 28 0 36 0;
#X connect 28 0 62 0;
#X connect 28 0 65 0;
#X connect 28 0 50 0;
#X connect 28 0 53 0;
#X connect 28 0 56 0;
#X connect 28 0 59 0;
#X connect 29 0 119 0;
#X connect 30 0 124 0;
#X connect 31 0 124 1;
#X connect 31 0 123 1;
#X connect 32 0 123 0;
#X connect 33 0 128 0;
#X connect 34 0 127 1;
#X connect 34 0 128 1;
#X connect 35 0 127 0;
#X connect 36 0 132 0;
#X connect 37 0 131 1;
#X connect 37 0 132 1;
#X connect 38 0 131 0;
#X connect 39 0 111 0;
#X connect 40 0 110 1;
#X connect 40 0 111 1;
#X connect 41 0 114 0;
#X connect 42 0 115 0;
#X connect 43 0 114 1;
#X connect 43 0 115 1;
#X connect 49 0 135 0;
#X connect 50 0 144 0;
#X connect 51 0 143 1;
#X connect 51 0 144 1;
#X connect 52 0 143 0;
#X connect 53 0 148 0;
#X connect 54 0 147 1;
#X connect 54 0 148 1;
#X connect 55 0 147 0;
#X connect 56 0 152 0;
#X connect 57 0 151 1;
#X connect 57 0 152 1;
#X connect 58 0 151 0;
#X connect 59 0 156 0;
#X connect 60 0 155 1;
#X connect 60 0 156 1;
#X connect 61 0 155 0;
#X connect 62 0 136 0;
#X connect 63 0 135 1;
#X connect 63 0 136 1;
#X connect 64 0 139 0;
#X connect 65 0 140 0;
#X connect 66 0 139 1;
#X connect 66 0 140 1;
#X connect 73 0 18 0;
#X connect 76 0 40 0;
#X connect 76 0 43 0;
#X connect 76 0 26 0;
#X connect 76 0 31 0;
#X connect 76 0 34 0;
#X connect 76 0 37 0;
#X connect 76 0 63 0;
#X connect 76 0 66 0;
#X connect 76 0 51 0;
#X connect 76 0 54 0;
#X connect 76 0 57 0;
#X connect 76 0 60 0;
#X connect 77 0 205 0;
#X connect 77 0 209 0;
#X connect 80 0 105 0;
#X connect 93 0 24 0;
#X connect 93 1 39 0;
#X connect 93 2 40 0;
#X connect 94 0 41 0;
#X connect 94 1 42 0;
#X connect 94 2 43 0;
#X connect 95 0 29 0;
#X connect 95 1 25 0;
#X connect 95 2 26 0;
#X connect 96 0 32 0;
#X connect 96 1 30 0;
#X connect 96 2 31 0;
#X connect 97 0 35 0;
#X connect 97 1 33 0;
#X connect 97 2 34 0;
#X connect 98 0 38 0;
#X connect 98 1 36 0;
#X connect 98 2 37 0;
#X connect 99 0 49 0;
#X connect 99 1 62 0;
#X connect 99 2 63 0;
#X connect 100 0 64 0;
#X connect 100 1 65 0;
#X connect 100 2 66 0;
#X connect 101 0 52 0;
#X connect 101 1 50 0;
#X connect 101 2 51 0;
#X connect 102 0 55 0;
#X connect 102 1 53 0;
#X connect 102 2 54 0;
#X connect 103 0 58 0;
#X connect 103 1 56 0;
#X connect 103 2 57 0;
#X connect 104 0 61 0;
#X connect 104 1 59 0;
#X connect 104 2 60 0;
#X connect 105 0 107 0;
#X connect 108 0 75 0;
#X connect 109 0 112 0;
#X connect 109 1 73 0;
#X connect 110 0 109 0;
#X connect 111 0 80 0;
#X connect 113 0 116 0;
#X connect 113 1 73 0;
#X connect 114 0 113 0;
#X connect 115 0 80 0;
#X connect 116 0 73 0;
#X connect 117 0 203 0;
#X connect 117 0 209 0;
#X connect 118 0 121 0;
#X connect 118 1 73 0;
#X connect 119 0 118 0;
#X connect 120 0 80 0;
#X connect 121 0 73 0;
#X connect 122 0 125 0;
#X connect 122 1 73 0;
#X connect 123 0 122 0;
#X connect 124 0 80 0;
#X connect 125 0 73 0;
#X connect 126 0 129 0;
#X connect 126 1 73 0;
#X connect 127 0 126 0;
#X connect 128 0 80 0;
#X connect 129 0 73 0;
#X connect 130 0 133 0;
#X connect 130 1 73 0;
#X connect 131 0 130 0;
#X connect 132 0 80 0;
#X connect 133 0 73 0;
#X connect 134 0 137 0;
#X connect 134 1 73 0;
#X connect 135 0 134 0;
#X connect 136 0 80 0;
#X connect 137 0 73 0;
#X connect 138 0 141 0;
#X connect 138 1 73 0;
#X connect 139 0 138 0;
#X connect 140 0 80 0;
#X connect 141 0 73 0;
#X connect 142 0 145 0;
#X connect 142 1 73 0;
#X connect 143 0 142 0;
#X connect 144 0 80 0;
#X connect 145 0 73 0;
#X connect 146 0 149 0;
#X connect 146 1 73 0;
#X connect 147 0 146 0;
#X connect 148 0 80 0;
#X connect 149 0 73 0;
#X connect 150 0 153 0;
#X connect 150 1 73 0;
#X connect 151 0 150 0;
#X connect 152 0 80 0;
#X connect 153 0 73 0;
#X connect 154 0 157 0;
#X connect 154 1 73 0;
#X connect 155 0 154 0;
#X connect 156 0 80 0;
#X connect 157 0 73 0;
#X connect 158 0 159 0;
#X connect 159 0 235 1;
#X connect 160 0 158 0;
#X connect 162 0 165 0;
#X connect 162 1 73 0;
#X connect 163 0 162 0;
#X connect 164 0 80 0;
#X connect 165 0 73 0;
#X connect 166 0 169 0;
#X connect 166 1 73 0;
#X connect 167 0 166 0;
#X connect 168 0 80 0;
#X connect 169 0 73 0;
#X connect 170 0 173 0;
#X connect 170 1 73 0;
#X connect 171 0 170 0;
#X connect 172 0 80 0;
#X connect 173 0 73 0;
#X connect 174 0 177 0;
#X connect 174 1 73 0;
#X connect 175 0 174 0;
#X connect 176 0 80 0;
#X connect 177 0 73 0;
#X connect 178 0 164 0;
#X connect 179 0 163 1;
#X connect 179 0 164 1;
#X connect 180 0 163 0;
#X connect 181 0 168 0;
#X connect 182 0 167 1;
#X connect 182 0 168 1;
#X connect 183 0 167 0;
#X connect 184 0 172 0;
#X connect 185 0 171 1;
#X connect 185 0 172 1;
#X connect 186 0 171 0;
#X connect 187 0 176 0;
#X connect 188 0 175 1;
#X connect 188 0 176 1;
#X connect 189 0 175 0;
#X connect 194 0 180 0;
#X connect 194 1 178 0;
#X connect 194 2 179 0;
#X connect 195 0 183 0;
#X connect 195 1 181 0;
#X connect 195 2 182 0;
#X connect 196 0 186 0;
#X connect 196 1 184 0;
#X connect 196 2 185 0;
#X connect 197 0 189 0;
#X connect 197 1 187 0;
#X connect 197 2 188 0;
#X connect 203 0 24 0;
#X connect 203 0 39 0;
#X connect 203 1 41 0;
#X connect 203 1 42 0;
#X connect 203 2 29 0;
#X connect 203 2 25 0;
#X connect 203 3 32 0;
#X connect 203 3 30 0;
#X connect 203 4 35 0;
#X connect 203 4 33 0;
#X connect 203 5 38 0;
#X connect 203 5 36 0;
#X connect 203 6 49 0;
#X connect 203 6 62 0;
#X connect 203 7 64 0;
#X connect 203 7 65 0;
#X connect 203 8 52 0;
#X connect 203 8 50 0;
#X connect 203 9 55 0;
#X connect 203 9 53 0;
#X connect 203 10 58 0;
#X connect 203 10 56 0;
#X connect 203 11 61 0;
#X connect 203 11 59 0;
#X connect 203 12 180 0;
#X connect 203 12 178 0;
#X connect 203 13 183 0;
#X connect 203 13 181 0;
#X connect 203 14 186 0;
#X connect 203 14 184 0;
#X connect 203 15 189 0;
#X connect 203 15 187 0;
#X connect 205 0 158 1;
#X connect 205 0 160 0;
#X connect 205 0 117 1;
#X connect 208 0 158 0;
#X connect 208 0 238 1;
#X connect 217 0 93 0;
#X connect 218 0 94 0;
#X connect 219 0 95 0;
#X connect 220 0 96 0;
#X connect 221 0 97 0;
#X connect 222 0 98 0;
#X connect 223 0 99 0;
#X connect 224 0 100 0;
#X connect 225 0 101 0;
#X connect 226 0 102 0;
#X connect 227 0 103 0;
#X connect 228 0 104 0;
#X connect 229 0 194 0;
#X connect 230 0 195 0;
#X connect 231 0 196 0;
#X connect 232 0 197 0;
#X connect 234 0 208 0;
#X connect 235 0 22 0;
#X connect 235 0 240 0;
#X connect 237 0 236 0;
#X connect 238 0 240 1;
#X connect 240 0 237 0;
#X coords 0 -1 1 1 660 120 2 100 200;
