#N canvas 328 145 319 342 10;
#X obj 48 38 inlet;
#X text 13 15 inlet for frequency;
#X obj 159 38 inlet;
#X text 140 15 inlet for phase;
#X obj 48 123 phasor~;
#X obj 120 125 phasor~;
#X obj 120 99 * -1;
#X obj 48 149 expr~ max($v1 \, $v2);
#X obj 48 175 -~ 0.75;
#X obj 48 201 *~ 4;
#X obj 48 227 outlet~;
#X connect 0 0 4 0;
#X connect 0 0 6 0;
#X connect 2 0 5 1;
#X connect 2 0 4 1;
#X connect 4 0 7 0;
#X connect 5 0 7 1;
#X connect 6 0 5 0;
#X connect 7 0 8 0;
#X connect 8 0 9 0;
#X connect 9 0 10 0;
